<svg width="1408" height="582" viewBox="0 0 1408 582" fill="none" xmlns="http://www.w3.org/2000/svg">
<path d="M78.1493 287.08C-34.4873 295.88 -80.8872 283.413 -90.0076 276.08L-170.381 619.08C-122.499 577.746 10.0885 482.28 157.383 431.08C341.5 367.08 274.807 505.58 532.458 523.08C790.108 540.58 809.489 511.58 1051.18 495.08C1292.87 478.58 1124.71 469.08 1298.57 457.58C1437.65 448.38 1581.49 536.08 1636.02 581.08L1600.11 214.08C1493.33 234.747 1259.35 286.88 1177.72 330.08C1075.69 384.08 877.322 402.08 704.605 412.08C531.888 422.08 218.945 276.08 78.1493 287.08Z" stroke="url(#paint0_linear_2_467)"/>
<path opacity="0.96" d="M82.7645 287.572C-28.5554 297.99 -74.7298 286.353 -83.9021 279.232L-156.703 619.969C-110.121 578.329 19.2396 481.822 164.03 428.91C345.018 362.769 281.73 500.874 537.11 514.291C792.49 527.709 811.103 498.71 1050.01 478.714C1288.93 458.719 1122.29 451.864 1294.15 437.846C1431.65 426.631 1575.75 511.261 1630.62 554.978L1587.84 192.247C1482.55 214.323 1251.97 269.473 1172.02 313.471C1072.09 368.469 876.09 389.293 705.323 401.809C534.556 414.325 221.914 274.55 82.7645 287.572Z" stroke="url(#paint1_linear_2_467)"/>
<path opacity="0.92" d="M87.2774 288.12C-22.6961 300.118 -68.6264 289.3 -77.8449 282.392L-143.189 620.738C-97.9046 578.82 28.2296 481.342 170.493 426.777C348.323 358.572 288.404 496.22 541.431 505.63C794.457 515.04 812.307 486.056 1048.38 462.645C1284.44 439.234 1119.38 434.975 1289.21 418.496C1425.07 405.313 1569.36 486.891 1624.53 529.328L1575.05 170.965C1471.27 194.409 1244.14 252.488 1165.88 297.247C1068.05 353.196 874.474 376.776 705.704 391.752C536.934 406.728 224.744 273.123 87.2774 288.12Z" stroke="url(#paint2_linear_2_467)"/>
<path opacity="0.88" d="M91.6887 288.726C-16.9098 302.266 -62.5775 292.256 -71.8366 285.558L-129.841 621.391C-85.8509 579.221 37.0575 480.841 176.774 424.686C351.419 354.493 294.831 491.623 545.423 497.102C796.014 502.581 813.109 473.626 1046.27 446.881C1279.43 420.135 1116 418.421 1283.74 399.539C1417.94 384.434 1562.34 462.982 1617.77 504.143L1561.74 150.24C1459.5 175.015 1235.87 235.934 1159.3 281.415C1063.59 338.267 872.479 364.536 705.752 381.914C539.025 399.292 227.437 271.801 91.6887 288.726Z" stroke="url(#paint3_linear_2_467)"/>
<path opacity="0.84" d="M96.0009 289.39C-11.195 304.434 -56.5821 295.221 -65.8762 288.734L-116.66 621.933C-73.9613 579.537 45.7242 480.324 182.873 422.64C354.309 350.534 301.014 487.088 549.092 488.713C797.17 490.337 813.516 461.427 1043.71 431.428C1273.91 401.43 1112.15 402.21 1277.77 380.984C1410.26 364.004 1554.7 439.542 1610.36 479.434L1547.95 130.081C1447.27 156.145 1227.18 219.815 1152.3 265.981C1058.71 323.688 870.117 352.578 705.476 372.3C540.835 392.022 229.996 270.586 96.0009 289.39Z" stroke="url(#paint4_linear_2_467)"/>
<path opacity="0.8" d="M100.216 290.116C-5.55089 306.625 -50.6398 298.196 -59.9634 291.918L-103.651 622.366C-62.2373 579.771 54.23 479.793 188.794 420.641C356.999 346.7 306.955 482.618 552.444 480.468C797.932 478.317 813.536 449.465 1040.71 416.296C1267.88 383.127 1107.85 386.35 1271.3 362.839C1402.06 344.031 1546.46 416.583 1602.32 455.21L1533.69 110.495C1434.58 137.809 1218.07 204.14 1144.9 250.952C1053.43 309.467 867.396 340.909 704.883 362.917C542.37 384.924 232.425 269.48 100.216 290.116Z" stroke="url(#paint5_linear_2_467)"/>
<path opacity="0.76" d="M104.337 290.904C0.0238993 308.838 -44.7496 301.183 -54.0972 295.113L-90.8123 622.694C-50.6799 579.927 62.5757 479.253 194.538 418.694C359.492 342.995 312.658 478.22 555.483 472.373C798.308 466.527 813.178 437.746 1037.27 401.491C1261.37 365.235 1103.1 370.847 1264.35 345.112C1393.34 324.524 1537.63 394.114 1593.65 431.482L1518.97 91.4871C1421.45 120.011 1208.56 188.913 1137.09 236.334C1047.75 295.61 864.326 329.534 703.981 353.768C543.637 378.003 234.727 268.486 104.337 290.904Z" stroke="url(#paint6_linear_2_467)"/>
<path opacity="0.72" d="M108.363 291.756C5.52925 311.077 -38.9118 304.182 -48.2781 298.32L-78.1487 622.922C-39.2911 580.009 70.7607 478.705 200.107 416.801C361.791 339.42 318.125 473.895 558.215 464.435C798.305 454.974 812.448 426.278 1033.41 387.02C1254.38 347.761 1097.93 355.71 1256.92 327.81C1384.12 305.491 1528.22 372.144 1584.37 408.261L1503.81 73.0652C1407.91 102.758 1198.67 174.141 1128.9 222.133C1041.69 282.122 860.913 318.459 702.776 344.86C544.638 371.261 236.906 267.605 108.363 291.756Z" stroke="url(#paint7_linear_2_467)"/>
<path opacity="0.68" d="M112.299 292.674C10.9667 313.341 -33.1256 307.195 -42.5051 301.538L-65.6609 623.054C-28.0717 580.02 78.7863 478.154 205.504 414.966C363.902 335.98 323.359 469.651 560.645 456.657C797.931 443.663 811.354 415.066 1029.14 372.89C1246.92 330.713 1092.33 340.944 1249.05 310.941C1374.42 286.939 1518.26 350.683 1574.51 385.556L1488.22 55.2348C1393.95 86.0562 1188.4 159.83 1120.34 208.355C1035.26 269.011 857.17 307.689 701.276 336.197C545.382 364.705 238.965 266.839 112.299 292.674Z" stroke="url(#paint8_linear_2_467)"/>
<path opacity="0.64" d="M116.146 293.659C16.3371 315.633 -27.3902 310.221 -36.7777 304.769L-53.3508 623.092C-17.0228 579.963 86.6529 477.602 210.731 413.191C365.828 332.678 328.363 465.489 562.778 449.046C797.194 432.602 809.906 404.117 1024.46 359.108C1239.01 314.098 1086.33 326.557 1240.73 294.512C1364.24 268.876 1507.75 329.74 1564.07 363.376L1472.23 38.002C1379.61 69.911 1177.77 145.984 1111.42 195.005C1028.47 256.281 853.103 297.229 699.489 327.784C545.874 358.339 240.908 266.191 116.146 293.659Z" stroke="url(#paint9_linear_2_467)"/>
<path opacity="0.6" d="M119.907 294.712C21.6421 317.952 -21.7046 313.264 -31.0948 308.014L-41.2194 623.042C-6.14472 579.844 94.3618 477.053 215.79 411.481C367.576 329.517 333.141 461.416 564.621 441.606C796.102 421.797 808.113 393.437 1019.39 345.68C1230.67 297.924 1079.93 312.555 1231.98 278.529C1353.61 251.309 1496.72 309.322 1553.07 341.731L1455.86 21.3717C1364.89 54.3277 1166.8 132.609 1102.15 182.089C1021.34 243.938 848.725 287.085 697.423 319.625C546.121 352.165 242.738 265.661 119.907 294.712Z" stroke="url(#paint10_linear_2_467)"/>
<path opacity="0.56" d="M123.583 295.835C26.8816 320.302 -16.0692 316.322 -25.457 311.274L-29.2692 622.907C4.56054 579.664 101.913 476.51 220.683 409.838C369.147 326.499 337.695 457.434 566.179 434.343C794.663 411.253 805.98 383.03 1013.94 332.613C1221.9 282.196 1073.15 298.945 1222.81 263C1342.54 234.244 1485.18 289.438 1541.54 320.629L1439.11 5.34933C1349.82 39.3112 1155.5 119.71 1092.55 169.611C1013.86 231.987 844.043 277.261 695.085 311.725C546.127 346.19 244.459 265.252 123.583 295.835Z" stroke="url(#paint11_linear_2_467)"/>
<defs>
<linearGradient id="paint0_linear_2_467" x1="732.821" y1="214.08" x2="732.821" y2="619.08" gradientUnits="userSpaceOnUse">
<stop stop-color="#FBD8FF"/>
<stop offset="1" stop-color="#A532B3"/>
</linearGradient>
<linearGradient id="paint1_linear_2_467" x1="729.353" y1="205.391" x2="735.491" y2="606.309" gradientUnits="userSpaceOnUse">
<stop stop-color="#FBD8FF"/>
<stop offset="1" stop-color="#A532B3"/>
</linearGradient>
<linearGradient id="paint2_linear_2_467" x1="725.619" y1="196.984" x2="737.772" y2="593.753" gradientUnits="userSpaceOnUse">
<stop stop-color="#FBD8FF"/>
<stop offset="1" stop-color="#A532B3"/>
</linearGradient>
<linearGradient id="paint3_linear_2_467" x1="721.625" y1="188.861" x2="739.671" y2="581.42" gradientUnits="userSpaceOnUse">
<stop stop-color="#FBD8FF"/>
<stop offset="1" stop-color="#A532B3"/>
</linearGradient>
<linearGradient id="paint4_linear_2_467" x1="717.382" y1="181.026" x2="741.198" y2="569.314" gradientUnits="userSpaceOnUse">
<stop stop-color="#FBD8FF"/>
<stop offset="1" stop-color="#A532B3"/>
</linearGradient>
<linearGradient id="paint5_linear_2_467" x1="1083" y1="-343" x2="1301.73" y2="111.144" gradientUnits="userSpaceOnUse">
<stop stop-color="#FBD8FF"/>
<stop offset="0.9999" stop-color="#B755C3"/>
<stop offset="1" stop-color="white"/>
</linearGradient>
<linearGradient id="paint6_linear_2_467" x1="708.18" y1="166.236" x2="743.173" y2="545.807" gradientUnits="userSpaceOnUse">
<stop stop-color="#FBD8FF"/>
<stop offset="1" stop-color="#A532B3"/>
</linearGradient>
<linearGradient id="paint7_linear_2_467" x1="703.238" y1="159.287" x2="743.639" y2="534.415" gradientUnits="userSpaceOnUse">
<stop stop-color="#FBD8FF"/>
<stop offset="1" stop-color="#A532B3"/>
</linearGradient>
<linearGradient id="paint8_linear_2_467" x1="698.08" y1="152.641" x2="743.77" y2="523.27" gradientUnits="userSpaceOnUse">
<stop stop-color="#FBD8FF"/>
<stop offset="1" stop-color="#A532B3"/>
</linearGradient>
<linearGradient id="paint9_linear_2_467" x1="692.716" y1="146.299" x2="743.574" y2="512.377" gradientUnits="userSpaceOnUse">
<stop stop-color="#FBD8FF"/>
<stop offset="1" stop-color="#A532B3"/>
</linearGradient>
<linearGradient id="paint10_linear_2_467" x1="687.154" y1="140.264" x2="743.062" y2="501.74" gradientUnits="userSpaceOnUse">
<stop stop-color="#FBD8FF"/>
<stop offset="1" stop-color="#A532B3"/>
</linearGradient>
<linearGradient id="paint11_linear_2_467" x1="681.402" y1="134.54" x2="742.242" y2="491.363" gradientUnits="userSpaceOnUse">
<stop stop-color="#FBD8FF"/>
<stop offset="1" stop-color="#A532B3"/>
</linearGradient>
</defs>
</svg>
