<svg width="411" height="450" viewBox="0 0 411 450" fill="none" xmlns="http://www.w3.org/2000/svg">
<g clip-path="url(#clip0_2_485)">
<g clip-path="url(#clip1_2_485)">
<path d="M54.318 31.3643C54.318 17.183 65.8142 5.6868 79.9955 5.6868H329.549C343.731 5.6868 355.227 17.183 355.227 31.3643V631.577C355.227 645.758 343.73 657.255 329.549 657.255H79.9955C65.8142 657.255 54.318 645.758 54.318 631.577V31.3643Z" fill="#F2F2F2"/>
<g opacity="0.8" filter="url(#filter0_f_2_485)">
<ellipse cx="121.722" cy="529.268" rx="82.6496" ry="127.987" fill="#DED4DE"/>
</g>
<g opacity="0.8" filter="url(#filter1_f_2_485)">
<ellipse cx="272.578" cy="262.864" rx="82.6496" ry="165.7" fill="#D4D0FD"/>
</g>
<path d="M96.9385 34.9311C95.1734 34.9311 93.7946 33.8787 93.5216 32.3334H95.2267C95.4398 33.0595 96.1259 33.539 96.9652 33.539C98.3839 33.539 99.2365 32.2069 99.2098 29.8823C99.2098 29.8823 99.2032 29.8823 99.1965 29.8823H99.1898H99.1832C98.8102 30.8215 97.8244 31.4542 96.5788 31.4542C94.7538 31.4542 93.3883 30.1021 93.3883 28.2771C93.3883 26.3321 94.9003 24.9267 96.9785 24.9267C98.3906 24.9267 99.5362 25.6061 100.176 26.8317C100.629 27.6176 100.862 28.6234 100.862 29.8223C100.862 33.0262 99.403 34.9311 96.9385 34.9311ZM96.9851 30.1088C98.0842 30.1088 98.9168 29.3095 98.9168 28.2504C98.9168 27.178 98.0775 26.3388 96.9985 26.3388C95.9261 26.3388 95.0802 27.1714 95.0802 28.2238C95.0802 29.3095 95.8928 30.1088 96.9851 30.1088ZM103.273 33.3326C102.733 33.3326 102.314 32.9129 102.314 32.3734C102.314 31.8406 102.733 31.4143 103.273 31.4143C103.806 31.4143 104.225 31.8406 104.225 32.3734C104.225 32.9129 103.806 33.3326 103.273 33.3326ZM103.273 28.5235C102.733 28.5235 102.314 28.0972 102.314 27.5644C102.314 27.0315 102.733 26.6052 103.273 26.6052C103.806 26.6052 104.225 27.0315 104.225 27.5644C104.225 28.0972 103.806 28.5235 103.273 28.5235ZM110.4 34.738V32.9196H105.604V31.4409C106.437 29.869 107.509 28.1572 109.594 25.1265H112.038V31.5142H113.331V32.9196H112.038V34.738H110.4ZM107.163 31.5075V31.5541H110.427V26.3987H110.4C108.848 28.6501 107.929 30.0688 107.163 31.5075ZM116.841 34.738V26.7651H116.801L114.316 28.5102V26.8916L116.827 25.1265H118.526V34.738H116.841Z" fill="black"/>
<rect opacity="0.35" x="310.878" y="24.8788" width="19.2582" height="9.62908" rx="3.04921" stroke="black" stroke-width="0.802423"/>
<path opacity="0.4" d="M331.34 28.3141V31.5843C331.986 31.3073 332.405 30.663 332.405 29.9492C332.405 29.2353 331.986 28.591 331.34 28.3141Z" fill="black"/>
<rect x="312.082" y="26.0824" width="16.8509" height="7.22181" rx="2.00606" fill="black"/>
<path fill-rule="evenodd" clip-rule="evenodd" d="M297.855 26.9683C299.851 26.9684 301.77 27.7083 303.217 29.0351C303.326 29.1375 303.5 29.1362 303.607 29.0322L304.648 28.0184C304.702 27.9656 304.733 27.8941 304.732 27.8198C304.732 27.7454 304.701 27.6743 304.646 27.6221C300.849 24.1117 294.86 24.1117 291.064 27.6221C291.009 27.6742 290.978 27.7453 290.977 27.8197C290.977 27.8941 291.007 27.9656 291.061 28.0184L292.103 29.0322C292.21 29.1364 292.384 29.1377 292.493 29.0351C293.94 27.7082 295.859 26.9683 297.855 26.9683ZM297.852 30.3548C298.942 30.3547 299.992 30.7653 300.799 31.5069C300.908 31.6121 301.08 31.6098 301.187 31.5017L302.22 30.4431C302.274 30.3876 302.304 30.3122 302.304 30.234C302.303 30.1557 302.271 30.081 302.216 30.0266C299.757 27.7069 295.95 27.7069 293.491 30.0266C293.436 30.081 293.404 30.1557 293.403 30.234C293.403 30.3123 293.433 30.3876 293.487 30.4431L294.52 31.5017C294.627 31.6098 294.799 31.6121 294.908 31.5069C295.715 30.7658 296.764 30.3552 297.852 30.3548ZM299.878 32.5964C299.88 32.6809 299.85 32.7624 299.796 32.8216L298.049 34.7914C297.998 34.8493 297.928 34.8818 297.855 34.8818C297.783 34.8818 297.713 34.8493 297.662 34.7914L295.915 32.8216C295.861 32.7624 295.831 32.6808 295.833 32.5963C295.834 32.5118 295.867 32.4317 295.923 32.3751C297.039 31.3208 298.672 31.3208 299.788 32.3751C299.844 32.4318 299.877 32.5118 299.878 32.5964Z" fill="black"/>
<path fill-rule="evenodd" clip-rule="evenodd" d="M284.96 25.8273C284.96 25.3193 284.577 24.9075 284.104 24.9075H283.248C282.775 24.9075 282.392 25.3193 282.392 25.8273V33.7985C282.392 34.3065 282.775 34.7183 283.248 34.7183H284.104C284.577 34.7183 284.96 34.3065 284.96 33.7985V25.8273ZM278.994 26.8697H279.85C280.323 26.8697 280.706 27.2913 280.706 27.8115V33.7764C280.706 34.2966 280.323 34.7183 279.85 34.7183H278.994C278.522 34.7183 278.139 34.2966 278.139 33.7764V27.8115C278.139 27.2913 278.522 26.8697 278.994 26.8697ZM275.519 28.9953H274.663C274.19 28.9953 273.807 29.4224 273.807 29.9491V33.7644C273.807 34.2912 274.19 34.7183 274.663 34.7183H275.519C275.991 34.7183 276.374 34.2912 276.374 33.7644V29.9491C276.374 29.4224 275.991 28.9953 275.519 28.9953ZM271.265 30.9575H270.409C269.936 30.9575 269.553 31.3784 269.553 31.8977V33.7781C269.553 34.2973 269.936 34.7183 270.409 34.7183H271.265C271.738 34.7183 272.121 34.2973 272.121 33.7781V31.8977C272.121 31.3784 271.738 30.9575 271.265 30.9575Z" fill="black"/>
<g filter="url(#filter2_d_2_485)">
<rect x="67.157" y="61.8569" width="70.6775" height="38.5163" rx="19.2582" fill="url(#paint0_linear_2_485)" shape-rendering="crispEdges"/>
<path d="M85.5164 85.359C84.7118 85.359 84.0014 85.2263 83.3852 84.961C82.7775 84.6871 82.2639 84.3233 81.8445 83.8697C81.4337 83.4075 81.1213 82.8897 80.9073 82.3162C80.7019 81.7342 80.5991 81.1308 80.5991 80.5059V80.2235C80.5991 79.6329 80.7019 79.0552 80.9073 78.4902C81.1127 77.9253 81.4123 77.4161 81.806 76.9624C82.2083 76.5088 82.7004 76.1493 83.2825 75.884C83.873 75.6101 84.5492 75.4731 85.311 75.4731C86.1327 75.4731 86.8602 75.6272 87.4936 75.9353C88.127 76.2349 88.6362 76.6586 89.0214 77.2064C89.4065 77.7456 89.6334 78.3747 89.7018 79.0937H87.8659C87.806 78.6914 87.6562 78.349 87.4165 78.0666C87.1769 77.7756 86.873 77.553 86.505 77.3989C86.1455 77.2449 85.7475 77.1679 85.311 77.1679C84.8745 77.1679 84.4765 77.2449 84.117 77.3989C83.766 77.553 83.4665 77.7713 83.2183 78.0537C82.97 78.3362 82.7775 78.6743 82.6405 79.068C82.5121 79.4617 82.4479 79.8982 82.4479 80.3775C82.4479 80.8997 82.5207 81.3661 82.6662 81.777C82.8117 82.1878 83.0171 82.5387 83.2825 82.8297C83.5478 83.1122 83.8688 83.3305 84.2454 83.4845C84.622 83.63 85.0456 83.7028 85.5164 83.7028C86.1412 83.7028 86.689 83.5744 87.1598 83.3176C87.6305 83.0523 87.9729 82.7099 88.1869 82.2905L87.8659 83.767V81.3533H89.5478V83.4332C89.1455 84.0409 88.5977 84.5159 87.9044 84.8583C87.2111 85.1921 86.4151 85.359 85.5164 85.359ZM85.2211 81.7128V80.3519H90.3309V81.7128H85.2211ZM95.0432 85.359C94.4269 85.359 93.8834 85.2606 93.4126 85.0637C92.9419 84.8668 92.5439 84.6015 92.2186 84.2677C91.8934 83.9253 91.6452 83.5402 91.474 83.1122C91.3114 82.6842 91.2301 82.2392 91.2301 81.777V81.5074C91.2301 81.028 91.3156 80.5744 91.4868 80.1464C91.6666 79.7099 91.9191 79.3248 92.2443 78.991C92.5781 78.6486 92.9804 78.3833 93.4512 78.195C93.9219 77.9981 94.4526 77.8997 95.0432 77.8997C95.6338 77.8997 96.1644 77.9981 96.6352 78.195C97.1059 78.3833 97.5039 78.6486 97.8292 78.991C98.163 79.3248 98.4155 79.7099 98.5867 80.1464C98.7579 80.5744 98.8434 81.028 98.8434 81.5074V81.777C98.8434 82.2392 98.7579 82.6842 98.5867 83.1122C98.424 83.5402 98.1801 83.9253 97.8549 84.2677C97.5296 84.6015 97.1316 84.8668 96.6609 85.0637C96.1901 85.2606 95.6509 85.359 95.0432 85.359ZM95.0432 83.8312C95.4797 83.8312 95.8477 83.737 96.1473 83.5487C96.4469 83.3519 96.6737 83.0908 96.8278 82.7656C96.9818 82.4317 97.0589 82.0551 97.0589 81.6357C97.0589 81.2078 96.9775 80.8312 96.8149 80.5059C96.6609 80.1721 96.4298 79.9111 96.1216 79.7228C95.8221 79.5259 95.4626 79.4275 95.0432 79.4275C94.6238 79.4275 94.26 79.5259 93.9519 79.7228C93.6523 79.9111 93.4212 80.1721 93.2586 80.5059C93.096 80.8312 93.0146 81.2078 93.0146 81.6357C93.0146 82.0551 93.0917 82.4317 93.2457 82.7656C93.4084 83.0908 93.6395 83.3519 93.939 83.5487C94.2386 83.737 94.6067 83.8312 95.0432 83.8312ZM104.884 82.2392V80.66H106.708C107.076 80.66 107.384 80.5872 107.632 80.4417C107.889 80.2962 108.081 80.0951 108.21 79.8383C108.347 79.5815 108.415 79.2862 108.415 78.9524C108.415 78.6186 108.347 78.3233 108.21 78.0666C108.081 77.8098 107.889 77.6129 107.632 77.476C107.384 77.3305 107.076 77.2577 106.708 77.2577H104.884V75.6786H106.554C107.341 75.6786 108.009 75.8069 108.556 76.0637C109.113 76.3205 109.536 76.6885 109.827 77.1679C110.118 77.6386 110.264 78.1992 110.264 78.8497V79.0552C110.264 79.7056 110.118 80.2706 109.827 80.7499C109.536 81.2206 109.113 81.5887 108.556 81.854C108.009 82.1108 107.341 82.2392 106.554 82.2392H104.884ZM103.318 85.1151V75.6786H105.141V85.1151H103.318ZM111.678 85.1151V78.1436H113.09V81.0965H113.051C113.051 80.0951 113.265 79.3376 113.693 78.8241C114.121 78.3105 114.75 78.0537 115.581 78.0537H115.837V79.6072H115.349C114.75 79.6072 114.284 79.7698 113.95 80.0951C113.625 80.4118 113.462 80.874 113.462 81.4817V85.1151H111.678ZM120.332 85.359C119.716 85.359 119.172 85.2606 118.702 85.0637C118.231 84.8668 117.833 84.6015 117.508 84.2677C117.182 83.9253 116.934 83.5402 116.763 83.1122C116.6 82.6842 116.519 82.2392 116.519 81.777V81.5074C116.519 81.028 116.605 80.5744 116.776 80.1464C116.955 79.7099 117.208 79.3248 117.533 78.991C117.867 78.6486 118.269 78.3833 118.74 78.195C119.211 77.9981 119.741 77.8997 120.332 77.8997C120.923 77.8997 121.453 77.9981 121.924 78.195C122.395 78.3833 122.793 78.6486 123.118 78.991C123.452 79.3248 123.704 79.7099 123.876 80.1464C124.047 80.5744 124.132 81.028 124.132 81.5074V81.777C124.132 82.2392 124.047 82.6842 123.876 83.1122C123.713 83.5402 123.469 83.9253 123.144 84.2677C122.818 84.6015 122.42 84.8668 121.95 85.0637C121.479 85.2606 120.94 85.359 120.332 85.359ZM120.332 83.8312C120.769 83.8312 121.137 83.737 121.436 83.5487C121.736 83.3519 121.963 83.0908 122.117 82.7656C122.271 82.4317 122.348 82.0551 122.348 81.6357C122.348 81.2078 122.266 80.8312 122.104 80.5059C121.95 80.1721 121.719 79.9111 121.41 79.7228C121.111 79.5259 120.751 79.4275 120.332 79.4275C119.913 79.4275 119.549 79.5259 119.241 79.7228C118.941 79.9111 118.71 80.1721 118.547 80.5059C118.385 80.8312 118.304 81.2078 118.304 81.6357C118.304 82.0551 118.381 82.4317 118.535 82.7656C118.697 83.0908 118.928 83.3519 119.228 83.5487C119.527 83.737 119.896 83.8312 120.332 83.8312Z" fill="#05070F"/>
</g>
<path d="M187.777 85.1151V75.7427H190.165V85.1151H187.777ZM189.908 81.4817V79.5302H193.388V81.4817H189.908ZM189.908 77.6942V75.7427H193.529V77.6942H189.908ZM195.037 85.1151V75.7427H197.373V85.1151H195.037ZM194.241 77.4375V75.7427H197.373V77.4375H194.241ZM201.472 85.3461C200.667 85.3461 200.042 85.0851 199.597 84.563C199.161 84.0323 198.942 83.2235 198.942 82.1365V78.028H201.279V82.2006C201.279 82.5173 201.373 82.7741 201.561 82.971C201.75 83.1678 202.002 83.2663 202.319 83.2663C202.636 83.2663 202.892 83.1678 203.089 82.971C203.286 82.7741 203.385 82.5088 203.385 82.175V78.028H205.721V85.1151H203.872V82.1365H204.001C204.001 82.864 203.907 83.4674 203.718 83.9467C203.539 84.4175 203.269 84.7684 202.91 84.9995C202.55 85.2306 202.105 85.3461 201.574 85.3461H201.472ZM210.258 85.3461C209.231 85.3461 208.422 85.1364 207.832 84.717C207.241 84.2891 206.925 83.6899 206.882 82.9196H208.936C208.97 83.1336 209.103 83.3176 209.334 83.4717C209.565 83.6258 209.89 83.7028 210.31 83.7028C210.609 83.7028 210.866 83.66 211.08 83.5744C211.303 83.4802 211.414 83.3305 211.414 83.125C211.414 82.9453 211.328 82.7998 211.157 82.6885C210.986 82.5687 210.673 82.4874 210.22 82.4446L209.732 82.3932C208.825 82.2991 208.157 82.0509 207.729 81.6486C207.301 81.2463 207.087 80.7413 207.087 80.1336C207.087 79.6115 207.216 79.1835 207.472 78.8497C207.729 78.5074 208.084 78.2506 208.538 78.0794C208.992 77.9082 209.509 77.8226 210.091 77.8226C211.042 77.8226 211.808 78.0323 212.39 78.4517C212.972 78.8626 213.28 79.4574 213.314 80.2363H211.26C211.226 80.0223 211.11 79.8426 210.913 79.6971C210.716 79.543 210.434 79.466 210.066 79.466C209.8 79.466 209.582 79.5131 209.411 79.6072C209.248 79.7014 209.167 79.834 209.167 80.0052C209.167 80.185 209.244 80.3176 209.398 80.4032C209.561 80.4888 209.818 80.553 210.168 80.5958L210.656 80.6472C211.564 80.7413 212.261 80.9938 212.749 81.4046C213.246 81.8069 213.494 82.3376 213.494 82.9967C213.494 83.4845 213.361 83.9039 213.096 84.2549C212.839 84.6058 212.467 84.8754 211.979 85.0637C211.499 85.252 210.926 85.3461 210.258 85.3461ZM214.656 85.1151V75.7427H216.993V81.0837H216.684C216.684 80.3647 216.774 79.7613 216.954 79.2734C217.134 78.7855 217.395 78.4175 217.737 78.1693C218.088 77.9211 218.52 77.797 219.034 77.797H219.137C219.907 77.797 220.493 78.0751 220.896 78.6315C221.306 79.1878 221.512 80.0052 221.512 81.0837V85.1151H219.175V80.9938C219.175 80.6686 219.077 80.4032 218.88 80.1978C218.683 79.9838 218.422 79.8768 218.097 79.8768C217.771 79.8768 217.506 79.9838 217.301 80.1978C217.095 80.4032 216.993 80.6771 216.993 81.0195V85.1151H214.656Z" fill="#05070F"/>
<g filter="url(#filter3_d_2_485)">
<rect x="303.872" y="61.8569" width="38.5163" height="38.5163" rx="19.2582" fill="white" fill-opacity="0.4" shape-rendering="crispEdges"/>
<path d="M323.307 73.0908H322.954C322.528 73.0908 322.12 73.2599 321.819 73.5609C321.518 73.8618 321.349 74.27 321.349 74.6957V74.8401C321.348 75.1215 321.274 75.3979 321.133 75.6416C320.992 75.8852 320.79 76.0876 320.546 76.2283L320.201 76.4289C319.957 76.5698 319.681 76.6439 319.399 76.6439C319.117 76.6439 318.84 76.5698 318.596 76.4289L318.476 76.3647C318.108 76.1523 317.67 76.0946 317.26 76.2045C316.849 76.3143 316.498 76.5826 316.285 76.9505L316.109 77.2554C315.896 77.6237 315.839 78.0612 315.949 78.4719C316.058 78.8826 316.327 79.2329 316.695 79.446L316.815 79.5263C317.058 79.6663 317.259 79.8674 317.4 80.1095C317.541 80.3516 317.616 80.6264 317.617 80.9064V81.3157C317.619 81.5984 317.545 81.8765 317.404 82.1217C317.263 82.3669 317.06 82.5705 316.815 82.7119L316.695 82.7841C316.327 82.9972 316.058 83.3475 315.949 83.7582C315.839 84.1689 315.896 84.6064 316.109 84.9747L316.285 85.2796C316.498 85.6475 316.849 85.9158 317.26 86.0256C317.67 86.1355 318.108 86.0778 318.476 85.8654L318.596 85.8012C318.84 85.6604 319.117 85.5862 319.399 85.5862C319.681 85.5862 319.957 85.6604 320.201 85.8012L320.546 86.0018C320.79 86.1425 320.992 86.3449 321.133 86.5885C321.274 86.8322 321.348 87.1086 321.349 87.39V87.5344C321.349 87.9601 321.518 88.3683 321.819 88.6692C322.12 88.9702 322.528 89.1393 322.954 89.1393H323.307C323.732 89.1393 324.14 88.9702 324.441 88.6692C324.742 88.3683 324.911 87.9601 324.911 87.5344V87.39C324.912 87.1086 324.986 86.8322 325.127 86.5885C325.268 86.3449 325.47 86.1425 325.714 86.0018L326.059 85.8012C326.303 85.6604 326.58 85.5862 326.861 85.5862C327.143 85.5862 327.42 85.6604 327.664 85.8012L327.784 85.8654C328.152 86.0778 328.59 86.1355 329.001 86.0256C329.411 85.9158 329.762 85.6475 329.975 85.2796L330.151 84.9667C330.364 84.5984 330.421 84.1609 330.312 83.7502C330.202 83.3395 329.933 82.9892 329.566 82.7761L329.445 82.7119C329.2 82.5705 328.997 82.3669 328.856 82.1217C328.715 81.8765 328.642 81.5984 328.643 81.3157V80.9144C328.642 80.6317 328.715 80.3536 328.856 80.1084C328.997 79.8632 329.2 79.6596 329.445 79.5182L329.566 79.446C329.933 79.2329 330.202 78.8826 330.312 78.4719C330.421 78.0612 330.364 77.6237 330.151 77.2554L329.975 76.9505C329.762 76.5826 329.411 76.3143 329.001 76.2045C328.59 76.0946 328.152 76.1523 327.784 76.3647L327.664 76.4289C327.42 76.5698 327.143 76.6439 326.861 76.6439C326.58 76.6439 326.303 76.5698 326.059 76.4289L325.714 76.2283C325.47 76.0876 325.268 75.8852 325.127 75.6416C324.986 75.3979 324.912 75.1215 324.911 74.8401V74.6957C324.911 74.27 324.742 73.8618 324.441 73.5609C324.14 73.2599 323.732 73.0908 323.307 73.0908Z" stroke="#05070F" stroke-width="1.60482" stroke-linecap="round" stroke-linejoin="round"/>
<path d="M323.13 83.5223C324.46 83.5223 325.537 82.4445 325.537 81.115C325.537 79.7855 324.46 78.7078 323.13 78.7078C321.801 78.7078 320.723 79.7855 320.723 81.115C320.723 82.4445 321.801 83.5223 323.13 83.5223Z" stroke="#05070F" stroke-width="1.60482" stroke-linecap="round" stroke-linejoin="round"/>
</g>
<g filter="url(#filter4_d_2_485)">
<rect x="67.157" y="113.212" width="275.231" height="182.953" rx="48.1454" fill="white" fill-opacity="0.4" shape-rendering="crispEdges"/>
<rect x="67.5582" y="113.613" width="274.429" height="182.15" rx="47.7442" stroke="white" stroke-opacity="0.4" stroke-width="0.802423" shape-rendering="crispEdges"/>
<path d="M268.967 206.293C268.967 170.84 240.226 142.099 204.773 142.099C169.32 142.099 140.579 170.84 140.579 206.293" stroke="#DBDDE1" stroke-width="12.0363" stroke-linecap="round"/>
<path d="M268.25 196.664C263.604 165.778 236.954 142.099 204.773 142.099C169.32 142.099 140.579 170.84 140.579 206.293" stroke="url(#paint1_linear_2_485)" stroke-width="12.0363" stroke-linecap="round"/>
<path d="M204.809 212.776C201.508 213.171 198.513 210.816 198.118 207.516C197.723 204.216 200.078 201.22 203.378 200.825C206.678 200.43 217.097 204.033 217.24 205.228C217.383 206.423 208.109 212.381 204.809 212.776Z" fill="#B5AEFF"/>
<path d="M159.029 249.911C158.393 249.911 157.857 249.789 157.421 249.545C156.991 249.294 156.663 248.948 156.438 248.505C156.22 248.056 156.111 247.536 156.111 246.945V242.708H157.055V247.061C157.055 247.452 157.129 247.799 157.276 248.1C157.43 248.396 157.655 248.627 157.95 248.794C158.246 248.961 158.605 249.044 159.029 249.044C159.452 249.044 159.809 248.964 160.098 248.803C160.393 248.637 160.614 248.405 160.762 248.11C160.916 247.808 160.993 247.459 160.993 247.061V242.708H161.937V246.945C161.937 247.536 161.828 248.056 161.609 248.505C161.391 248.948 161.067 249.294 160.637 249.545C160.207 249.789 159.671 249.911 159.029 249.911ZM166.367 249.911C165.783 249.911 165.285 249.814 164.874 249.622C164.463 249.429 164.149 249.163 163.931 248.823C163.712 248.482 163.603 248.097 163.603 247.667H164.547C164.547 247.879 164.601 248.091 164.71 248.303C164.826 248.515 165.015 248.691 165.279 248.832C165.548 248.974 165.911 249.044 166.367 249.044C166.79 249.044 167.137 248.983 167.407 248.861C167.676 248.733 167.875 248.569 168.004 248.37C168.132 248.165 168.196 247.943 168.196 247.706C168.196 247.417 168.071 247.179 167.821 246.993C167.57 246.801 167.204 246.682 166.723 246.637L165.943 246.569C165.32 246.518 164.823 246.326 164.45 245.992C164.078 245.658 163.892 245.218 163.892 244.673C163.892 244.242 163.995 243.867 164.2 243.546C164.412 243.225 164.704 242.975 165.076 242.795C165.449 242.609 165.882 242.516 166.376 242.516C166.864 242.516 167.294 242.605 167.667 242.785C168.039 242.965 168.328 243.219 168.533 243.546C168.745 243.867 168.851 244.252 168.851 244.701H167.907C167.907 244.477 167.853 244.265 167.744 244.066C167.641 243.867 167.477 243.703 167.253 243.575C167.028 243.446 166.736 243.382 166.376 243.382C166.03 243.382 165.741 243.443 165.51 243.565C165.285 243.687 165.115 243.848 164.999 244.047C164.89 244.239 164.836 244.448 164.836 244.673C164.836 244.929 164.935 245.157 165.134 245.356C165.333 245.555 165.628 245.671 166.02 245.703L166.8 245.77C167.281 245.809 167.695 245.911 168.042 246.078C168.395 246.239 168.665 246.457 168.851 246.733C169.044 247.003 169.14 247.327 169.14 247.706C169.14 248.136 169.024 248.518 168.793 248.852C168.562 249.185 168.238 249.445 167.821 249.632C167.403 249.818 166.919 249.911 166.367 249.911ZM170.964 249.737V242.708H171.908V249.737H170.964ZM171.715 249.737V248.89H175.124V249.737H171.715ZM171.715 246.589V245.741H174.825V246.589H171.715ZM171.715 243.556V242.708H175.028V243.556H171.715ZM177.73 249.776V248.909H179.482C179.906 248.909 180.281 248.842 180.609 248.707C180.942 248.566 181.225 248.373 181.456 248.129C181.694 247.885 181.873 247.6 181.995 247.272C182.117 246.945 182.178 246.592 182.178 246.213C182.178 245.815 182.117 245.456 181.995 245.135C181.873 244.807 181.694 244.525 181.456 244.287C181.225 244.043 180.942 243.857 180.609 243.729C180.281 243.6 179.906 243.536 179.482 243.536H177.73V242.67H179.386C180.021 242.67 180.573 242.769 181.042 242.968C181.511 243.161 181.899 243.424 182.207 243.758C182.522 244.085 182.756 244.454 182.91 244.865C183.064 245.27 183.141 245.684 183.141 246.107V246.319C183.141 246.73 183.064 247.141 182.91 247.552C182.756 247.962 182.522 248.335 182.207 248.669C181.899 249.002 181.511 249.272 181.042 249.477C180.573 249.676 180.021 249.776 179.386 249.776H177.73ZM176.979 249.776V242.67H177.922V249.776H176.979Z" fill="#05070F" fill-opacity="0.32"/>
<path d="M146.171 265.305V257.319L146.735 257.755H144.335V255.932H148.263V265.305H146.171ZM149.922 265.305V263.379C149.922 262.976 149.986 262.626 150.115 262.326C150.252 262.026 150.466 261.761 150.757 261.53C151.048 261.29 151.433 261.068 151.912 260.862L153.427 260.208C153.812 260.045 154.095 259.844 154.274 259.604C154.463 259.364 154.557 259.061 154.557 258.693C154.557 258.316 154.441 258.008 154.21 257.768C153.979 257.529 153.641 257.409 153.196 257.409C152.751 257.409 152.413 257.533 152.182 257.781C151.951 258.029 151.835 258.363 151.835 258.782H149.794C149.794 258.192 149.922 257.661 150.179 257.19C150.436 256.711 150.816 256.335 151.321 256.061C151.826 255.787 152.451 255.65 153.196 255.65C153.941 255.65 154.561 255.782 155.058 256.048C155.563 256.313 155.943 256.668 156.2 257.113C156.466 257.559 156.598 258.059 156.598 258.616V258.77C156.598 259.489 156.401 260.083 156.008 260.554C155.614 261.016 155.006 261.427 154.185 261.787L152.682 262.442C152.426 262.553 152.242 262.668 152.13 262.788C152.028 262.908 151.976 263.071 151.976 263.276V263.918L151.476 263.494H156.611V265.305H149.922ZM157.437 263.507V261.312L160.993 255.663L162.624 256.728L159.581 261.568L159.76 261.838H165.371V263.507H157.437ZM162.354 265.305V258.551H164.293V265.305H162.354ZM166.005 265.305V263.006H168.264V265.305H166.005ZM170.908 265.305V257.319L171.473 257.755H169.072V255.932H173V265.305H170.908ZM181.829 265.549C180.99 265.549 180.258 265.412 179.633 265.138C179.009 264.855 178.491 264.479 178.08 264.008C177.678 263.537 177.378 263.015 177.181 262.442C176.984 261.868 176.886 261.295 176.886 260.721V260.439C176.886 259.848 176.984 259.27 177.181 258.705C177.378 258.141 177.673 257.627 178.067 257.165C178.469 256.703 178.966 256.335 179.556 256.061C180.156 255.787 180.845 255.65 181.623 255.65C182.471 255.65 183.22 255.808 183.87 256.125C184.521 256.433 185.043 256.865 185.437 257.422C185.83 257.969 186.057 258.607 186.117 259.335H184.011C183.96 258.992 183.823 258.693 183.601 258.436C183.387 258.179 183.108 257.978 182.766 257.832C182.432 257.687 182.051 257.614 181.623 257.614C181.213 257.614 180.845 257.687 180.519 257.832C180.203 257.978 179.929 258.183 179.698 258.449C179.475 258.714 179.304 259.031 179.184 259.399C179.073 259.758 179.017 260.156 179.017 260.593C179.017 261.046 179.077 261.461 179.197 261.838C179.325 262.206 179.509 262.527 179.749 262.801C179.989 263.066 180.284 263.272 180.635 263.417C180.994 263.563 181.392 263.636 181.829 263.636C182.411 263.636 182.916 263.516 183.344 263.276C183.772 263.036 184.08 262.72 184.268 262.326L184.011 263.764V261.53H185.95V263.533C185.548 264.183 184.991 264.684 184.281 265.035C183.579 265.377 182.762 265.549 181.829 265.549ZM181.559 261.941V260.426H186.72V261.941H181.559ZM189.628 265.369V263.725H191.824C192.217 263.725 192.513 263.623 192.709 263.417C192.906 263.212 193.005 262.921 193.005 262.544C193.005 262.168 192.906 261.881 192.709 261.684C192.513 261.479 192.217 261.376 191.824 261.376H189.628V260.105H191.721C192.371 260.105 192.949 260.186 193.454 260.349C193.959 260.503 194.357 260.755 194.648 261.106C194.939 261.457 195.085 261.932 195.085 262.531V262.711C195.085 263.267 194.956 263.747 194.699 264.149C194.443 264.543 194.066 264.847 193.57 265.061C193.073 265.266 192.457 265.369 191.721 265.369H189.628ZM187.831 265.369V255.855H189.885V265.369H187.831ZM189.628 261.042V259.784H191.477C191.879 259.784 192.17 259.681 192.35 259.476C192.53 259.27 192.62 258.996 192.62 258.654C192.62 258.295 192.53 258.012 192.35 257.807C192.17 257.601 191.879 257.499 191.477 257.499H189.628V255.855H191.348C192.427 255.855 193.253 256.082 193.826 256.536C194.408 256.989 194.699 257.636 194.699 258.474V258.667C194.699 259.249 194.55 259.715 194.25 260.066C193.959 260.417 193.561 260.67 193.056 260.824C192.56 260.969 191.99 261.042 191.348 261.042H189.628Z" fill="#05070F"/>
<rect width="0.79908" height="25.6771" transform="translate(206.378 239.169)" fill="#DBDDE1"/>
<path d="M229.148 249.737V243.363H230.092V249.737H229.148ZM227.011 243.556V242.708H232.23V243.556H227.011ZM236.671 249.911C236.042 249.911 235.5 249.798 235.044 249.574C234.588 249.349 234.213 249.054 233.918 248.688C233.622 248.322 233.401 247.93 233.253 247.513C233.112 247.096 233.041 246.695 233.041 246.309V246.098C233.041 245.68 233.115 245.26 233.263 244.836C233.41 244.413 233.635 244.027 233.937 243.681C234.239 243.328 234.614 243.045 235.063 242.833C235.519 242.622 236.055 242.516 236.671 242.516C237.288 242.516 237.821 242.622 238.27 242.833C238.726 243.045 239.104 243.328 239.406 243.681C239.708 244.027 239.933 244.413 240.08 244.836C240.228 245.26 240.302 245.68 240.302 246.098V246.309C240.302 246.695 240.228 247.096 240.08 247.513C239.939 247.93 239.721 248.322 239.425 248.688C239.13 249.054 238.755 249.349 238.299 249.574C237.843 249.798 237.301 249.911 236.671 249.911ZM236.671 249.044C237.082 249.044 237.451 248.967 237.779 248.813C238.113 248.659 238.395 248.45 238.626 248.187C238.857 247.918 239.034 247.616 239.156 247.282C239.278 246.942 239.339 246.586 239.339 246.213C239.339 245.822 239.278 245.456 239.156 245.115C239.034 244.775 238.857 244.477 238.626 244.22C238.395 243.957 238.113 243.751 237.779 243.604C237.451 243.456 237.082 243.382 236.671 243.382C236.261 243.382 235.888 243.456 235.555 243.604C235.227 243.751 234.948 243.957 234.717 244.22C234.486 244.477 234.309 244.775 234.187 245.115C234.065 245.456 234.004 245.822 234.004 246.213C234.004 246.586 234.065 246.942 234.187 247.282C234.309 247.616 234.486 247.918 234.717 248.187C234.948 248.45 235.227 248.659 235.555 248.813C235.888 248.967 236.261 249.044 236.671 249.044ZM243.246 249.737V243.363H244.19V249.737H243.246ZM241.108 243.556V242.708H246.327V243.556H241.108ZM246.55 249.737L249.082 242.708H250.68L253.29 249.737H252.317L249.958 243.324L250.42 243.556H249.284L249.775 243.324L247.493 249.737H246.55ZM248.061 247.638L248.379 246.791H251.412L251.73 247.638H248.061ZM254.82 249.737V242.708H255.763V249.737H254.82ZM255.571 249.737V248.89H258.787V249.737H255.571Z" fill="#05070F" fill-opacity="0.32"/>
<path d="M223.48 265.305V257.319L224.045 257.755H221.644V255.932H225.573V265.305H223.48ZM227.232 265.305V263.379C227.232 262.976 227.296 262.626 227.425 262.326C227.561 262.026 227.775 261.761 228.066 261.53C228.357 261.29 228.743 261.068 229.222 260.862L230.737 260.208C231.122 260.045 231.405 259.844 231.584 259.604C231.773 259.364 231.867 259.061 231.867 258.693C231.867 258.316 231.751 258.008 231.52 257.768C231.289 257.529 230.951 257.409 230.506 257.409C230.061 257.409 229.723 257.533 229.492 257.781C229.26 258.029 229.145 258.363 229.145 258.782H227.104C227.104 258.192 227.232 257.661 227.489 257.19C227.745 256.711 228.126 256.335 228.631 256.061C229.136 255.787 229.761 255.65 230.506 255.65C231.25 255.65 231.871 255.782 232.367 256.048C232.872 256.313 233.253 256.668 233.51 257.113C233.775 257.559 233.908 258.059 233.908 258.616V258.77C233.908 259.489 233.711 260.083 233.318 260.554C232.924 261.016 232.316 261.427 231.494 261.787L229.992 262.442C229.736 262.553 229.551 262.668 229.44 262.788C229.338 262.908 229.286 263.071 229.286 263.276V263.918L228.785 263.494H233.921V265.305H227.232ZM238.598 265.574C237.845 265.574 237.186 265.463 236.621 265.24C236.065 265.018 235.628 264.693 235.311 264.265C235.003 263.837 234.849 263.315 234.849 262.698C234.849 262.305 234.913 261.958 235.042 261.658C235.17 261.35 235.35 261.089 235.581 260.875C235.821 260.661 236.099 260.494 236.416 260.374V260.208C236.176 260.105 235.958 259.968 235.761 259.797C235.564 259.617 235.41 259.399 235.299 259.142C235.187 258.885 235.132 258.586 235.132 258.243C235.132 257.661 235.281 257.182 235.581 256.805C235.889 256.429 236.304 256.146 236.826 255.958C237.357 255.761 237.948 255.663 238.598 255.663C239.266 255.663 239.861 255.761 240.383 255.958C240.905 256.146 241.316 256.429 241.615 256.805C241.915 257.182 242.065 257.661 242.065 258.243C242.065 258.586 242.009 258.885 241.898 259.142C241.795 259.399 241.645 259.617 241.448 259.797C241.252 259.968 241.029 260.105 240.781 260.208V260.374C241.097 260.494 241.376 260.661 241.615 260.875C241.855 261.089 242.039 261.35 242.167 261.658C242.296 261.958 242.36 262.305 242.36 262.698C242.36 263.315 242.202 263.837 241.885 264.265C241.577 264.693 241.14 265.018 240.575 265.24C240.019 265.463 239.36 265.574 238.598 265.574ZM238.598 263.841C238.949 263.841 239.253 263.79 239.51 263.687C239.766 263.584 239.968 263.43 240.113 263.225C240.259 263.011 240.331 262.754 240.331 262.454C240.331 262.155 240.259 261.907 240.113 261.71C239.976 261.504 239.775 261.35 239.51 261.248C239.253 261.136 238.949 261.081 238.598 261.081C238.256 261.081 237.952 261.136 237.687 261.248C237.43 261.35 237.233 261.504 237.096 261.71C236.959 261.907 236.891 262.155 236.891 262.454C236.891 262.754 236.959 263.011 237.096 263.225C237.233 263.43 237.43 263.584 237.687 263.687C237.952 263.79 238.256 263.841 238.598 263.841ZM238.598 259.527C239.043 259.527 239.394 259.437 239.651 259.258C239.908 259.069 240.036 258.8 240.036 258.449C240.036 258.098 239.908 257.832 239.651 257.653C239.394 257.473 239.043 257.383 238.598 257.383C238.153 257.383 237.802 257.477 237.545 257.665C237.289 257.845 237.16 258.106 237.16 258.449C237.16 258.8 237.289 259.069 237.545 259.258C237.811 259.437 238.162 259.527 238.598 259.527ZM250.575 265.549C249.737 265.549 249.005 265.412 248.38 265.138C247.755 264.855 247.237 264.479 246.826 264.008C246.424 263.537 246.125 263.015 245.928 262.442C245.731 261.868 245.632 261.295 245.632 260.721V260.439C245.632 259.848 245.731 259.27 245.928 258.705C246.125 258.141 246.42 257.627 246.814 257.165C247.216 256.703 247.712 256.335 248.303 256.061C248.902 255.787 249.591 255.65 250.37 255.65C251.217 255.65 251.966 255.808 252.617 256.125C253.267 256.433 253.789 256.865 254.183 257.422C254.577 257.969 254.804 258.607 254.863 259.335H252.758C252.707 258.992 252.57 258.693 252.347 258.436C252.133 258.179 251.855 257.978 251.513 257.832C251.179 257.687 250.798 257.614 250.37 257.614C249.959 257.614 249.591 257.687 249.266 257.832C248.949 257.978 248.675 258.183 248.444 258.449C248.222 258.714 248.05 259.031 247.931 259.399C247.819 259.758 247.764 260.156 247.764 260.593C247.764 261.046 247.824 261.461 247.943 261.838C248.072 262.206 248.256 262.527 248.495 262.801C248.735 263.066 249.03 263.272 249.381 263.417C249.741 263.563 250.139 263.636 250.575 263.636C251.157 263.636 251.662 263.516 252.09 263.276C252.518 263.036 252.826 262.72 253.015 262.326L252.758 263.764V261.53H254.697V263.533C254.294 264.183 253.738 264.684 253.028 265.035C252.326 265.377 251.508 265.549 250.575 265.549ZM250.306 261.941V260.426H255.467V261.941H250.306ZM258.375 265.369V263.725H260.57C260.964 263.725 261.259 263.623 261.456 263.417C261.653 263.212 261.751 262.921 261.751 262.544C261.751 262.168 261.653 261.881 261.456 261.684C261.259 261.479 260.964 261.376 260.57 261.376H258.375V260.105H260.467C261.118 260.105 261.696 260.186 262.201 260.349C262.706 260.503 263.104 260.755 263.395 261.106C263.686 261.457 263.831 261.932 263.831 262.531V262.711C263.831 263.267 263.703 263.747 263.446 264.149C263.189 264.543 262.813 264.847 262.316 265.061C261.82 265.266 261.203 265.369 260.467 265.369H258.375ZM256.577 265.369V255.855H258.631V265.369H256.577ZM258.375 261.042V259.784H260.223C260.626 259.784 260.917 259.681 261.096 259.476C261.276 259.27 261.366 258.996 261.366 258.654C261.366 258.295 261.276 258.012 261.096 257.807C260.917 257.601 260.626 257.499 260.223 257.499H258.375V255.855H260.095C261.173 255.855 261.999 256.082 262.573 256.536C263.155 256.989 263.446 257.636 263.446 258.474V258.667C263.446 259.249 263.296 259.715 262.997 260.066C262.706 260.417 262.308 260.67 261.803 260.824C261.306 260.969 260.737 261.042 260.095 261.042H258.375Z" fill="#05070F"/>
</g>
<g filter="url(#filter5_d_2_485)">
<rect x="67.157" y="315.423" width="275.231" height="54.5648" rx="27.2824" fill="#B5AEFF" shape-rendering="crispEdges"/>
<path d="M99.2539 343.507C99.2539 347.52 96.4455 349.526 93.1074 350.689C92.9326 350.748 92.7427 350.746 92.5697 350.681C89.2236 349.526 86.4152 347.52 86.4152 343.507V337.89C86.4152 337.678 86.4997 337.474 86.6502 337.323C86.8007 337.173 87.0048 337.088 87.2176 337.088C88.8224 337.088 90.8285 336.125 92.2247 334.905C92.3947 334.76 92.611 334.68 92.8345 334.68C93.0581 334.68 93.2744 334.76 93.4444 334.905C94.8486 336.133 96.8467 337.088 98.4515 337.088C98.6643 337.088 98.8684 337.173 99.0189 337.323C99.1694 337.474 99.2539 337.678 99.2539 337.89V343.507Z" stroke="#05070F" stroke-width="1.60485" stroke-linecap="round" stroke-linejoin="round"/>
<path d="M90.4272 342.705L92.0321 344.31L95.2418 341.1" stroke="#05070F" stroke-width="1.60485" stroke-linecap="round" stroke-linejoin="round"/>
<path d="M116.445 346.949C115.615 346.949 114.913 346.816 114.339 346.551C113.775 346.286 113.342 345.922 113.043 345.46C112.743 344.989 112.593 344.458 112.593 343.868H114.378C114.378 344.116 114.446 344.36 114.583 344.599C114.72 344.831 114.939 345.019 115.238 345.164C115.546 345.31 115.949 345.383 116.445 345.383C116.89 345.383 117.262 345.318 117.562 345.19C117.862 345.062 118.084 344.895 118.23 344.689C118.375 344.475 118.448 344.236 118.448 343.97C118.448 343.637 118.307 343.371 118.024 343.174C117.742 342.969 117.305 342.841 116.715 342.789L115.893 342.725C114.994 342.648 114.275 342.37 113.736 341.89C113.205 341.403 112.94 340.761 112.94 339.965C112.94 339.366 113.081 338.852 113.364 338.424C113.646 337.987 114.04 337.654 114.545 337.423C115.058 337.183 115.658 337.063 116.342 337.063C117.053 337.063 117.665 337.187 118.178 337.435C118.692 337.684 119.09 338.035 119.372 338.488C119.655 338.933 119.796 339.46 119.796 340.067H118.011C118.011 339.811 117.947 339.575 117.819 339.361C117.699 339.139 117.515 338.963 117.267 338.835C117.027 338.698 116.719 338.629 116.342 338.629C115.983 338.629 115.683 338.689 115.444 338.809C115.204 338.929 115.024 339.092 114.904 339.297C114.785 339.502 114.725 339.725 114.725 339.965C114.725 340.256 114.832 340.512 115.046 340.735C115.26 340.949 115.598 341.073 116.06 341.107L116.882 341.184C117.549 341.236 118.135 341.377 118.64 341.608C119.145 341.839 119.535 342.152 119.809 342.545C120.091 342.939 120.232 343.414 120.232 343.97C120.232 344.561 120.078 345.083 119.77 345.537C119.462 345.982 119.021 346.328 118.448 346.577C117.883 346.825 117.215 346.949 116.445 346.949ZM124.878 346.949C124.279 346.949 123.752 346.846 123.299 346.641C122.854 346.435 122.481 346.162 122.182 345.819C121.891 345.468 121.668 345.079 121.514 344.651C121.369 344.223 121.296 343.786 121.296 343.341V343.097C121.296 342.635 121.369 342.19 121.514 341.762C121.668 341.326 121.891 340.94 122.182 340.607C122.481 340.264 122.849 339.995 123.286 339.798C123.722 339.592 124.227 339.49 124.801 339.49C125.554 339.49 126.183 339.657 126.688 339.99C127.202 340.316 127.587 340.748 127.844 341.287C128.1 341.818 128.229 342.391 128.229 343.007V343.649H122.053V342.558H127.112L126.56 343.097C126.56 342.652 126.496 342.271 126.367 341.955C126.239 341.638 126.042 341.394 125.777 341.223C125.52 341.052 125.195 340.966 124.801 340.966C124.407 340.966 124.073 341.056 123.799 341.236C123.526 341.415 123.316 341.676 123.17 342.019C123.033 342.353 122.965 342.755 122.965 343.226C122.965 343.662 123.033 344.052 123.17 344.394C123.307 344.728 123.517 344.993 123.799 345.19C124.082 345.378 124.441 345.472 124.878 345.472C125.314 345.472 125.67 345.387 125.944 345.216C126.217 345.036 126.393 344.818 126.47 344.561H128.113C128.011 345.04 127.814 345.46 127.523 345.819C127.232 346.179 126.859 346.457 126.406 346.654C125.961 346.851 125.451 346.949 124.878 346.949ZM132.814 346.949C132.206 346.949 131.68 346.846 131.235 346.641C130.798 346.435 130.43 346.162 130.13 345.819C129.839 345.477 129.621 345.092 129.476 344.664C129.33 344.236 129.257 343.799 129.257 343.354V343.11C129.257 342.639 129.33 342.19 129.476 341.762C129.63 341.326 129.857 340.94 130.156 340.607C130.456 340.264 130.824 339.995 131.26 339.798C131.705 339.592 132.219 339.49 132.801 339.49C133.409 339.49 133.952 339.609 134.431 339.849C134.911 340.08 135.292 340.405 135.574 340.825C135.865 341.244 136.028 341.732 136.062 342.288H134.329C134.286 341.929 134.132 341.629 133.867 341.39C133.61 341.15 133.255 341.03 132.801 341.03C132.407 341.03 132.078 341.124 131.812 341.313C131.556 341.501 131.363 341.762 131.235 342.096C131.106 342.421 131.042 342.798 131.042 343.226C131.042 343.637 131.102 344.009 131.222 344.343C131.35 344.676 131.543 344.938 131.8 345.126C132.065 345.314 132.403 345.408 132.814 345.408C133.122 345.408 133.387 345.353 133.61 345.241C133.832 345.13 134.008 344.976 134.136 344.779C134.273 344.582 134.359 344.36 134.393 344.112H136.126C136.092 344.676 135.925 345.173 135.625 345.601C135.334 346.02 134.945 346.35 134.457 346.589C133.978 346.829 133.43 346.949 132.814 346.949ZM139.931 346.923C139.126 346.923 138.502 346.658 138.057 346.127C137.62 345.597 137.402 344.809 137.402 343.765V339.721H139.186V343.919C139.186 344.347 139.306 344.689 139.546 344.946C139.785 345.194 140.111 345.318 140.522 345.318C140.932 345.318 141.266 345.186 141.523 344.92C141.788 344.655 141.921 344.296 141.921 343.842V339.721H143.706V346.705H142.293V343.739H142.435C142.435 344.441 142.345 345.027 142.165 345.498C141.985 345.969 141.716 346.324 141.356 346.564C140.997 346.803 140.547 346.923 140.008 346.923H139.931ZM145.756 346.705V339.734H147.168V342.686H147.129C147.129 341.685 147.343 340.928 147.771 340.414C148.199 339.9 148.828 339.644 149.659 339.644H149.915V341.197H149.427C148.828 341.197 148.362 341.36 148.028 341.685C147.703 342.002 147.54 342.464 147.54 343.072V346.705H145.756ZM151.443 346.705V339.734H153.228V346.705H151.443ZM150.467 341.069V339.734H153.228V341.069H150.467ZM152.098 338.899C151.747 338.899 151.486 338.809 151.315 338.629C151.152 338.441 151.071 338.21 151.071 337.936C151.071 337.645 151.152 337.41 151.315 337.23C151.486 337.05 151.747 336.96 152.098 336.96C152.449 336.96 152.706 337.05 152.868 337.23C153.031 337.41 153.112 337.645 153.112 337.936C153.112 338.21 153.031 338.441 152.868 338.629C152.706 338.809 152.449 338.899 152.098 338.899ZM158.314 346.795C157.672 346.795 157.142 346.714 156.722 346.551C156.311 346.38 156.003 346.097 155.798 345.704C155.592 345.301 155.49 344.762 155.49 344.086L155.503 337.769H157.172L157.159 344.201C157.159 344.544 157.249 344.809 157.428 344.997C157.617 345.177 157.882 345.267 158.224 345.267H159.316V346.795H158.314ZM154.386 341.043V339.734H159.316V341.043H154.386ZM160.608 349.453V347.925H161.918C162.166 347.925 162.371 347.89 162.534 347.822C162.705 347.762 162.846 347.659 162.958 347.514C163.069 347.377 163.154 347.184 163.214 346.936L165.089 339.734H166.796L164.729 347.321C164.592 347.843 164.4 348.259 164.152 348.567C163.903 348.883 163.582 349.11 163.189 349.247C162.804 349.384 162.324 349.453 161.751 349.453H160.608ZM162.778 346.551V345.139H164.267V346.551H162.778ZM162.174 346.551L159.915 339.734H161.712L163.856 346.551H162.174ZM175.159 346.949C174.312 346.949 173.584 346.799 172.976 346.5C172.369 346.2 171.872 345.811 171.487 345.331C171.11 344.852 170.832 344.33 170.652 343.765C170.473 343.2 170.383 342.657 170.383 342.134V341.852C170.383 341.27 170.473 340.696 170.652 340.132C170.841 339.567 171.127 339.053 171.513 338.591C171.898 338.129 172.386 337.761 172.976 337.487C173.575 337.204 174.282 337.063 175.095 337.063C175.942 337.063 176.678 337.217 177.303 337.525C177.936 337.825 178.441 338.253 178.818 338.809C179.195 339.357 179.421 339.999 179.498 340.735H177.662C177.594 340.307 177.44 339.948 177.2 339.657C176.969 339.357 176.674 339.134 176.314 338.989C175.955 338.835 175.548 338.758 175.095 338.758C174.632 338.758 174.222 338.839 173.862 339.002C173.503 339.156 173.203 339.378 172.963 339.669C172.724 339.96 172.54 340.303 172.411 340.696C172.292 341.09 172.232 341.527 172.232 342.006C172.232 342.468 172.292 342.896 172.411 343.29C172.54 343.684 172.728 344.03 172.976 344.33C173.224 344.621 173.528 344.848 173.888 345.01C174.256 345.173 174.68 345.254 175.159 345.254C175.861 345.254 176.451 345.083 176.931 344.741C177.418 344.39 177.714 343.902 177.816 343.277H179.652C179.567 343.945 179.34 344.557 178.972 345.113C178.604 345.669 178.099 346.114 177.457 346.448C176.815 346.782 176.049 346.949 175.159 346.949ZM184.169 346.949C183.57 346.949 183.044 346.846 182.59 346.641C182.145 346.435 181.773 346.162 181.473 345.819C181.182 345.468 180.96 345.079 180.806 344.651C180.66 344.223 180.587 343.786 180.587 343.341V343.097C180.587 342.635 180.66 342.19 180.806 341.762C180.96 341.326 181.182 340.94 181.473 340.607C181.773 340.264 182.141 339.995 182.577 339.798C183.014 339.592 183.519 339.49 184.092 339.49C184.846 339.49 185.475 339.657 185.98 339.99C186.493 340.316 186.878 340.748 187.135 341.287C187.392 341.818 187.52 342.391 187.52 343.007V343.649H181.345V342.558H186.403L185.851 343.097C185.851 342.652 185.787 342.271 185.659 341.955C185.53 341.638 185.334 341.394 185.068 341.223C184.811 341.052 184.486 340.966 184.092 340.966C183.699 340.966 183.365 341.056 183.091 341.236C182.817 341.415 182.607 341.676 182.462 342.019C182.325 342.353 182.257 342.755 182.257 343.226C182.257 343.662 182.325 344.052 182.462 344.394C182.599 344.728 182.809 344.993 183.091 345.19C183.373 345.378 183.733 345.472 184.169 345.472C184.606 345.472 184.961 345.387 185.235 345.216C185.509 345.036 185.684 344.818 185.761 344.561H187.405C187.302 345.04 187.105 345.46 186.814 345.819C186.523 346.179 186.151 346.457 185.697 346.654C185.252 346.851 184.743 346.949 184.169 346.949ZM189.011 346.705V339.734H190.423V342.725H190.295C190.295 342.015 190.389 341.424 190.578 340.953C190.766 340.474 191.044 340.114 191.412 339.875C191.789 339.635 192.255 339.515 192.811 339.515H192.889C193.719 339.515 194.348 339.785 194.776 340.324C195.204 340.855 195.418 341.651 195.418 342.712V346.705H193.633V342.558C193.633 342.13 193.509 341.783 193.261 341.518C193.021 341.253 192.687 341.12 192.259 341.12C191.823 341.12 191.468 341.257 191.194 341.531C190.928 341.796 190.796 342.156 190.796 342.609V346.705H189.011ZM200.366 346.795C199.724 346.795 199.194 346.714 198.774 346.551C198.363 346.38 198.055 346.097 197.85 345.704C197.644 345.301 197.542 344.762 197.542 344.086L197.555 337.769H199.224L199.211 344.201C199.211 344.544 199.301 344.809 199.48 344.997C199.669 345.177 199.934 345.267 200.276 345.267H201.368V346.795H200.366ZM196.438 341.043V339.734H201.368V341.043H196.438ZM205.948 346.949C205.349 346.949 204.822 346.846 204.369 346.641C203.924 346.435 203.551 346.162 203.252 345.819C202.961 345.468 202.738 345.079 202.584 344.651C202.438 344.223 202.366 343.786 202.366 343.341V343.097C202.366 342.635 202.438 342.19 202.584 341.762C202.738 341.326 202.961 340.94 203.252 340.607C203.551 340.264 203.919 339.995 204.356 339.798C204.792 339.592 205.297 339.49 205.871 339.49C206.624 339.49 207.253 339.657 207.758 339.99C208.272 340.316 208.657 340.748 208.914 341.287C209.17 341.818 209.299 342.391 209.299 343.007V343.649H203.123V342.558H208.182L207.63 343.097C207.63 342.652 207.565 342.271 207.437 341.955C207.309 341.638 207.112 341.394 206.846 341.223C206.59 341.052 206.264 340.966 205.871 340.966C205.477 340.966 205.143 341.056 204.869 341.236C204.595 341.415 204.386 341.676 204.24 342.019C204.103 342.353 204.035 342.755 204.035 343.226C204.035 343.662 204.103 344.052 204.24 344.394C204.377 344.728 204.587 344.993 204.869 345.19C205.152 345.378 205.511 345.472 205.948 345.472C206.384 345.472 206.739 345.387 207.013 345.216C207.287 345.036 207.463 344.818 207.54 344.561H209.183C209.08 345.04 208.884 345.46 208.593 345.819C208.302 346.179 207.929 346.457 207.476 346.654C207.03 346.851 206.521 346.949 205.948 346.949ZM210.789 346.705V339.734H212.202V342.686H212.163C212.163 341.685 212.377 340.928 212.805 340.414C213.233 339.9 213.862 339.644 214.692 339.644H214.949V341.197H214.461C213.862 341.197 213.396 341.36 213.062 341.685C212.737 342.002 212.574 342.464 212.574 343.072V346.705H210.789Z" fill="#05070F"/>
<circle cx="227.327" cy="342.705" r="4.81454" fill="#E81B43"/>
<path d="M315.106 345.915L318.315 342.705L315.106 339.495" stroke="#05070F" stroke-width="1.06988" stroke-linecap="round" stroke-linejoin="round"/>
</g>
<g filter="url(#filter6_d_2_485)">
<rect x="67.157" y="382.826" width="275.231" height="51.3551" rx="25.6775" fill="white" fill-opacity="0.4" shape-rendering="crispEdges"/>
<rect x="73.5764" y="389.246" width="38.5163" height="38.5163" rx="19.2582" fill="#C9AEF7" fill-opacity="0.12"/>
<path d="M98.4515 401.282H87.2176C86.3312 401.282 85.6127 402 85.6127 402.887V414.121C85.6127 415.007 86.3312 415.726 87.2176 415.726H98.4515C99.3378 415.726 100.056 415.007 100.056 414.121V402.887C100.056 402 99.3378 401.282 98.4515 401.282Z" stroke="#B5AEFF" stroke-width="1.60482" stroke-linecap="round" stroke-linejoin="round"/>
<path d="M90.428 407.701C91.3148 407.701 92.0336 406.983 92.0336 406.096C92.0336 405.21 91.3148 404.492 90.428 404.492C89.5412 404.492 88.8224 405.21 88.8224 406.096C88.8224 406.983 89.5412 407.701 90.428 407.701Z" stroke="#B5AEFF" stroke-width="1.60482" stroke-linecap="round" stroke-linejoin="round"/>
<path d="M100.056 410.911L97.58 408.435C97.2791 408.134 96.871 407.965 96.4454 407.965C96.0199 407.965 95.6117 408.134 95.3108 408.435L88.02 415.726" stroke="#B5AEFF" stroke-width="1.60482" stroke-linecap="round" stroke-linejoin="round"/>
<path d="M124.084 409.243V408.139H126.177C126.622 408.139 126.99 408.053 127.281 407.882C127.572 407.702 127.79 407.462 127.936 407.163C128.09 406.863 128.167 406.529 128.167 406.161C128.167 405.785 128.09 405.447 127.936 405.147C127.79 404.848 127.572 404.612 127.281 404.441C126.99 404.27 126.622 404.184 126.177 404.184H124.084V403.08H125.946C126.716 403.08 127.358 403.204 127.872 403.452C128.394 403.692 128.787 404.034 129.053 404.479C129.318 404.925 129.451 405.451 129.451 406.059V406.264C129.451 406.863 129.318 407.39 129.053 407.843C128.787 408.288 128.394 408.635 127.872 408.883C127.358 409.123 126.716 409.243 125.946 409.243H124.084ZM123.083 412.504V403.08H124.341V412.504H123.083ZM131.115 412.504V403.131H132.348V408.729H132.04C132.04 408.053 132.125 407.471 132.296 406.983C132.476 406.487 132.75 406.106 133.118 405.84C133.486 405.575 133.957 405.442 134.53 405.442H134.582C135.403 405.442 136.024 405.716 136.443 406.264C136.863 406.803 137.072 407.578 137.072 408.588V412.504H135.84V408.331C135.84 407.775 135.682 407.343 135.365 407.034C135.057 406.726 134.654 406.572 134.158 406.572C133.61 406.572 133.169 406.756 132.836 407.124C132.51 407.484 132.348 407.959 132.348 408.549V412.504H131.115ZM142.486 412.735C141.887 412.735 141.36 412.632 140.907 412.427C140.453 412.221 140.068 411.952 139.751 411.618C139.443 411.275 139.208 410.895 139.045 410.475C138.891 410.056 138.814 409.628 138.814 409.191V408.96C138.814 408.524 138.895 408.096 139.058 407.676C139.221 407.248 139.46 406.868 139.777 406.534C140.094 406.191 140.479 405.922 140.932 405.725C141.386 405.519 141.904 405.417 142.486 405.417C143.068 405.417 143.586 405.519 144.039 405.725C144.493 405.922 144.878 406.191 145.195 406.534C145.512 406.868 145.751 407.248 145.914 407.676C146.076 408.096 146.158 408.524 146.158 408.96V409.191C146.158 409.628 146.076 410.056 145.914 410.475C145.76 410.895 145.524 411.275 145.208 411.618C144.9 411.952 144.519 412.221 144.065 412.427C143.611 412.632 143.085 412.735 142.486 412.735ZM142.486 411.631C142.999 411.631 143.436 411.519 143.795 411.297C144.163 411.066 144.442 410.758 144.63 410.372C144.827 409.987 144.925 409.555 144.925 409.076C144.925 408.588 144.827 408.151 144.63 407.766C144.433 407.381 144.151 407.077 143.783 406.855C143.423 406.632 142.991 406.521 142.486 406.521C141.989 406.521 141.557 406.632 141.189 406.855C140.821 407.077 140.539 407.381 140.342 407.766C140.145 408.151 140.046 408.588 140.046 409.076C140.046 409.555 140.141 409.987 140.329 410.372C140.526 410.758 140.804 411.066 141.163 411.297C141.531 411.519 141.972 411.631 142.486 411.631ZM150.674 412.581C150.161 412.581 149.716 412.508 149.339 412.362C148.971 412.217 148.684 411.969 148.479 411.618C148.282 411.258 148.183 410.775 148.183 410.167V403.568H149.365V410.321C149.365 410.689 149.463 410.976 149.66 411.181C149.865 411.378 150.152 411.477 150.52 411.477H151.727V412.581H150.674ZM147.002 406.572V405.648H151.727V406.572H147.002ZM156.578 412.735C155.979 412.735 155.453 412.632 154.999 412.427C154.546 412.221 154.16 411.952 153.844 411.618C153.536 411.275 153.3 410.895 153.138 410.475C152.984 410.056 152.907 409.628 152.907 409.191V408.96C152.907 408.524 152.988 408.096 153.15 407.676C153.313 407.248 153.553 406.868 153.869 406.534C154.186 406.191 154.571 405.922 155.025 405.725C155.479 405.519 155.996 405.417 156.578 405.417C157.16 405.417 157.678 405.519 158.132 405.725C158.586 405.922 158.971 406.191 159.287 406.534C159.604 406.868 159.844 407.248 160.006 407.676C160.169 408.096 160.25 408.524 160.25 408.96V409.191C160.25 409.628 160.169 410.056 160.006 410.475C159.852 410.895 159.617 411.275 159.3 411.618C158.992 411.952 158.611 412.221 158.158 412.427C157.704 412.632 157.178 412.735 156.578 412.735ZM156.578 411.631C157.092 411.631 157.528 411.519 157.888 411.297C158.256 411.066 158.534 410.758 158.722 410.372C158.919 409.987 159.018 409.555 159.018 409.076C159.018 408.588 158.919 408.151 158.722 407.766C158.526 407.381 158.243 407.077 157.875 406.855C157.516 406.632 157.083 406.521 156.578 406.521C156.082 406.521 155.65 406.632 155.282 406.855C154.914 407.077 154.631 407.381 154.434 407.766C154.237 408.151 154.139 408.588 154.139 409.076C154.139 409.555 154.233 409.987 154.421 410.372C154.618 410.758 154.897 411.066 155.256 411.297C155.624 411.519 156.065 411.631 156.578 411.631ZM164.343 412.709C163.444 412.709 162.747 412.517 162.25 412.131C161.762 411.746 161.51 411.22 161.493 410.552H162.648C162.665 410.818 162.798 411.07 163.046 411.31C163.303 411.541 163.735 411.656 164.343 411.656C164.891 411.656 165.31 411.549 165.601 411.335C165.892 411.113 166.038 410.843 166.038 410.527C166.038 410.244 165.931 410.026 165.717 409.872C165.503 409.709 165.156 409.602 164.677 409.551L163.932 409.474C163.282 409.405 162.751 409.213 162.34 408.896C161.929 408.571 161.724 408.117 161.724 407.535C161.724 407.099 161.835 406.726 162.058 406.418C162.28 406.101 162.588 405.862 162.982 405.699C163.376 405.528 163.83 405.442 164.343 405.442C165.113 405.442 165.738 405.614 166.218 405.956C166.697 406.298 166.945 406.808 166.962 407.484H165.807C165.798 407.21 165.67 406.979 165.422 406.79C165.182 406.594 164.822 406.495 164.343 406.495C163.864 406.495 163.5 406.594 163.252 406.79C163.004 406.987 162.879 407.236 162.879 407.535C162.879 407.792 162.965 407.997 163.136 408.151C163.316 408.305 163.607 408.404 164.009 408.447L164.754 408.524C165.49 408.601 166.081 408.806 166.526 409.14C166.971 409.465 167.193 409.927 167.193 410.527C167.193 410.955 167.069 411.335 166.821 411.669C166.581 411.994 166.247 412.251 165.82 412.44C165.392 412.619 164.899 412.709 164.343 412.709Z" fill="#05070F"/>
<rect x="175.141" y="398.794" width="48.8388" height="19.4194" rx="9.70969" fill="#F0DDFF"/>
<path d="M183.525 412.004V405.437L183.948 405.764H181.965V404.974H184.449V412.004H183.525ZM186.336 412.004V410.848C186.336 410.566 186.374 410.325 186.451 410.126C186.535 409.927 186.676 409.747 186.875 409.587C187.074 409.42 187.344 409.259 187.684 409.105L189.003 408.499C189.324 408.351 189.578 408.162 189.764 407.931C189.95 407.693 190.043 407.388 190.043 407.016C190.043 406.567 189.918 406.217 189.667 405.966C189.417 405.716 189.064 405.591 188.608 405.591C188.159 405.591 187.806 405.716 187.549 405.966C187.292 406.217 187.164 406.567 187.164 407.016H186.259C186.259 406.611 186.342 406.239 186.509 405.899C186.682 405.559 186.942 405.289 187.289 405.09C187.636 404.885 188.075 404.782 188.608 404.782C189.141 404.782 189.578 404.885 189.918 405.09C190.264 405.289 190.521 405.552 190.688 405.88C190.861 406.207 190.948 406.563 190.948 406.948V407.083C190.948 407.59 190.8 408.017 190.505 408.364C190.216 408.711 189.825 408.996 189.33 409.221L188.011 409.828C187.716 409.962 187.517 410.097 187.414 410.232C187.312 410.367 187.26 410.547 187.26 410.771V411.657L187.01 411.214H191.035V412.004H186.336ZM192.259 412.004V410.829H193.376V412.004H192.259ZM194.539 410.338V409.202L197.456 404.801L198.101 405.312L195.376 409.433L195.463 409.606H200.008V410.338H194.539ZM198.207 412.004V407.025H199.074V412.004H198.207ZM206.605 412.177C206.06 412.177 205.565 412.087 205.122 411.907C204.679 411.728 204.297 411.474 203.976 411.147C203.662 410.819 203.418 410.434 203.245 409.991C203.071 409.542 202.985 409.054 202.985 408.528V408.316C202.985 407.866 203.062 407.433 203.216 407.016C203.376 406.592 203.604 406.213 203.899 405.88C204.201 405.539 204.567 405.273 204.997 405.08C205.427 404.881 205.912 404.782 206.451 404.782C207.035 404.782 207.555 404.894 208.011 405.119C208.467 405.337 208.833 405.645 209.109 406.043C209.385 406.435 209.545 406.891 209.59 407.411H208.627C208.582 407.019 208.454 406.695 208.242 406.438C208.03 406.175 207.767 405.979 207.453 405.851C207.144 405.716 206.811 405.649 206.451 405.649C206.085 405.649 205.748 405.716 205.44 405.851C205.132 405.979 204.866 406.165 204.641 406.409C204.423 406.653 204.252 406.945 204.131 407.285C204.009 407.626 203.948 408.008 203.948 408.431C203.948 408.913 204.012 409.336 204.14 409.702C204.275 410.062 204.461 410.364 204.699 410.608C204.936 410.845 205.215 411.025 205.536 411.147C205.864 411.269 206.22 411.33 206.605 411.33C207.151 411.33 207.629 411.221 208.04 411.002C208.457 410.778 208.772 410.489 208.984 410.136L208.637 411.282V409.192H209.523V410.867C209.208 411.278 208.804 411.599 208.31 411.83C207.815 412.061 207.247 412.177 206.605 412.177ZM206.355 409.385V408.595H210.12V409.385H206.355ZM212.219 412.042V411.214H214.184C214.563 411.214 214.855 411.108 215.06 410.896C215.272 410.678 215.378 410.389 215.378 410.03C215.378 409.664 215.275 409.378 215.07 409.173C214.864 408.961 214.569 408.855 214.184 408.855H212.219V408.239H214.049C214.498 408.239 214.893 408.293 215.233 408.402C215.58 408.512 215.85 408.695 216.042 408.951C216.241 409.202 216.341 409.545 216.341 409.982V410.116C216.341 410.527 216.257 410.877 216.09 411.166C215.923 411.448 215.67 411.667 215.33 411.821C214.989 411.968 214.563 412.042 214.049 412.042H212.219ZM211.468 412.042V404.936H212.412V412.042H211.468ZM212.219 408.682V408.065H213.924C214.322 408.065 214.614 407.96 214.8 407.748C214.993 407.529 215.089 407.253 215.089 406.92C215.089 406.579 214.993 406.303 214.8 406.091C214.614 405.873 214.322 405.764 213.924 405.764H212.219V404.936H213.76C214.53 404.936 215.105 405.1 215.484 405.427C215.862 405.748 216.052 406.213 216.052 406.823V406.958C216.052 407.388 215.956 407.732 215.763 407.988C215.57 408.239 215.301 408.418 214.954 408.528C214.614 408.63 214.216 408.682 213.76 408.682H212.219Z" fill="#05070F"/>
<path d="M315.106 411.713L318.315 408.504L315.106 405.294" stroke="#05070F" stroke-width="1.06988" stroke-linecap="round" stroke-linejoin="round"/>
</g>
<g filter="url(#filter7_d_2_485)">
<rect x="67.157" y="438.996" width="275.231" height="51.3551" rx="25.6775" fill="white" fill-opacity="0.4" shape-rendering="crispEdges"/>
<rect x="73.5764" y="445.415" width="38.5163" height="38.5163" rx="19.2582" fill="#C9AEF7" fill-opacity="0.12"/>
</g>
</g>
</g>
<rect x="53.7797" y="6.48316" width="301.13" height="649.27" rx="45.112" stroke="black" stroke-width="4.43725"/>
<rect x="49.4328" y="2.13749" width="309.825" height="657.962" rx="49.4682" stroke="url(#paint2_linear_2_485)" stroke-width="4.275"/>
<rect x="153.789" y="17.061" width="92.2553" height="27.055" rx="13.5275" fill="black"/>
<g filter="url(#filter8_dd_2_485)">
<rect x="33.345" y="304.951" width="342" height="67.8018" rx="33.9009" fill="#B5AEFF" shape-rendering="crispEdges"/>
<path d="M73.2284 339.849C73.2284 344.834 69.7386 347.327 65.5907 348.773C65.3735 348.846 65.1376 348.843 64.9227 348.763C60.7648 347.327 57.275 344.834 57.275 339.849V332.869C57.275 332.605 57.3801 332.351 57.5671 332.164C57.7541 331.977 58.0077 331.872 58.2721 331.872C60.2663 331.872 62.759 330.676 64.4939 329.16C64.7052 328.98 64.9739 328.881 65.2517 328.881C65.5295 328.881 65.7982 328.98 66.0095 329.16C67.7544 330.686 70.2371 331.872 72.2313 331.872C72.4957 331.872 72.7493 331.977 72.9363 332.164C73.1233 332.351 73.2284 332.605 73.2284 332.869V339.849Z" stroke="#05070F" stroke-width="1.99417" stroke-linecap="round" stroke-linejoin="round"/>
<path d="M62.2604 338.852L64.2546 340.846L68.2429 336.858" stroke="#05070F" stroke-width="1.99417" stroke-linecap="round" stroke-linejoin="round"/>
<path d="M94.5899 344.155C93.5582 344.155 92.6861 343.99 91.9735 343.66C91.2716 343.331 90.7345 342.879 90.3622 342.304C89.99 341.719 89.8039 341.06 89.8039 340.326H92.0214C92.0214 340.635 92.1065 340.938 92.2767 341.236C92.4468 341.523 92.718 341.757 93.0903 341.937C93.4732 342.118 93.973 342.209 94.5899 342.209C95.1429 342.209 95.6056 342.129 95.9778 341.969C96.3501 341.81 96.6266 341.602 96.8074 341.347C96.9882 341.081 97.0786 340.784 97.0786 340.454C97.0786 340.039 96.9031 339.709 96.5522 339.465C96.2012 339.209 95.6588 339.05 94.9249 338.986L93.9039 338.906C92.7872 338.811 91.8938 338.465 91.2237 337.869C90.5643 337.263 90.2346 336.465 90.2346 335.476C90.2346 334.732 90.4101 334.094 90.7611 333.562C91.1121 333.02 91.6013 332.605 92.2288 332.318C92.8669 332.02 93.6114 331.871 94.4623 331.871C95.345 331.871 96.1055 332.025 96.7436 332.334C97.3817 332.642 97.8763 333.078 98.2273 333.642C98.5782 334.195 98.7537 334.849 98.7537 335.604H96.5362C96.5362 335.285 96.4564 334.992 96.2969 334.727C96.148 334.45 95.9193 334.232 95.6109 334.072C95.3131 333.902 94.9302 333.817 94.4623 333.817C94.0156 333.817 93.6433 333.892 93.3455 334.041C93.0477 334.189 92.8244 334.392 92.6755 334.647C92.5266 334.902 92.4521 335.179 92.4521 335.476C92.4521 335.838 92.5851 336.157 92.851 336.434C93.1169 336.699 93.537 336.854 94.1113 336.896L95.1323 336.992C95.9619 337.056 96.6904 337.231 97.3179 337.518C97.9454 337.806 98.4293 338.194 98.7697 338.683C99.1206 339.172 99.2961 339.762 99.2961 340.454C99.2961 341.188 99.1047 341.836 98.7218 342.4C98.3389 342.953 97.7912 343.384 97.0786 343.692C96.3767 344.001 95.5471 344.155 94.5899 344.155ZM105.068 344.155C104.324 344.155 103.67 344.027 103.106 343.772C102.553 343.517 102.091 343.177 101.718 342.751C101.357 342.315 101.08 341.831 100.889 341.299C100.708 340.768 100.618 340.225 100.618 339.672V339.369C100.618 338.795 100.708 338.242 100.889 337.71C101.08 337.167 101.357 336.689 101.718 336.274C102.091 335.849 102.548 335.514 103.09 335.269C103.633 335.014 104.26 334.886 104.973 334.886C105.909 334.886 106.69 335.093 107.318 335.508C107.956 335.912 108.435 336.45 108.754 337.12C109.073 337.779 109.232 338.492 109.232 339.257V340.055H101.559V338.699H107.844L107.158 339.369C107.158 338.816 107.079 338.343 106.919 337.949C106.76 337.556 106.515 337.252 106.185 337.04C105.866 336.827 105.462 336.721 104.973 336.721C104.484 336.721 104.069 336.832 103.728 337.056C103.388 337.279 103.128 337.603 102.947 338.029C102.777 338.444 102.691 338.944 102.691 339.529C102.691 340.071 102.777 340.555 102.947 340.98C103.117 341.395 103.377 341.725 103.728 341.969C104.079 342.203 104.526 342.32 105.068 342.32C105.611 342.32 106.052 342.214 106.393 342.001C106.733 341.778 106.951 341.507 107.047 341.188H109.089C108.961 341.783 108.716 342.304 108.355 342.751C107.993 343.198 107.531 343.543 106.967 343.788C106.414 344.033 105.781 344.155 105.068 344.155ZM114.93 344.155C114.174 344.155 113.52 344.027 112.967 343.772C112.425 343.517 111.968 343.177 111.595 342.751C111.234 342.326 110.962 341.847 110.782 341.315C110.601 340.784 110.51 340.241 110.51 339.688V339.385C110.51 338.8 110.601 338.242 110.782 337.71C110.973 337.167 111.255 336.689 111.627 336.274C111.999 335.849 112.457 335.514 112.999 335.269C113.552 335.014 114.19 334.886 114.914 334.886C115.669 334.886 116.344 335.035 116.94 335.333C117.535 335.62 118.009 336.024 118.36 336.545C118.721 337.066 118.923 337.673 118.966 338.364H116.812C116.759 337.917 116.567 337.545 116.238 337.247C115.919 336.949 115.477 336.8 114.914 336.8C114.424 336.8 114.015 336.917 113.685 337.151C113.366 337.385 113.127 337.71 112.967 338.125C112.808 338.529 112.728 338.997 112.728 339.529C112.728 340.039 112.802 340.502 112.951 340.916C113.111 341.331 113.35 341.656 113.669 341.89C113.999 342.124 114.419 342.241 114.93 342.241C115.312 342.241 115.642 342.171 115.919 342.033C116.195 341.895 116.413 341.703 116.573 341.459C116.743 341.214 116.849 340.938 116.892 340.629H119.046C119.003 341.331 118.796 341.948 118.423 342.48C118.062 343.001 117.578 343.41 116.972 343.708C116.376 344.006 115.695 344.155 114.93 344.155ZM123.773 344.123C122.774 344.123 121.997 343.793 121.444 343.134C120.902 342.475 120.63 341.496 120.63 340.199V335.173H122.848V340.39C122.848 340.922 122.997 341.347 123.295 341.666C123.593 341.975 123.997 342.129 124.507 342.129C125.018 342.129 125.432 341.964 125.752 341.634C126.081 341.305 126.246 340.858 126.246 340.294V335.173H128.464V343.852H126.709V340.167H126.884C126.884 341.039 126.773 341.767 126.549 342.352C126.326 342.937 125.991 343.379 125.544 343.676C125.097 343.974 124.539 344.123 123.869 344.123H123.773ZM131.011 343.852V335.189H132.766V338.858H132.718C132.718 337.614 132.984 336.673 133.516 336.035C134.047 335.397 134.829 335.078 135.861 335.078H136.18V337.008H135.574C134.829 337.008 134.249 337.21 133.835 337.614C133.43 338.008 133.228 338.582 133.228 339.337V343.852H131.011ZM138.078 343.852V335.189H140.296V343.852H138.078ZM136.866 336.848V335.189H140.296V336.848H136.866ZM138.892 334.152C138.456 334.152 138.131 334.041 137.919 333.817C137.716 333.583 137.615 333.296 137.615 332.956C137.615 332.594 137.716 332.302 137.919 332.078C138.131 331.855 138.456 331.743 138.892 331.743C139.328 331.743 139.647 331.855 139.849 332.078C140.051 332.302 140.152 332.594 140.152 332.956C140.152 333.296 140.051 333.583 139.849 333.817C139.647 334.041 139.328 334.152 138.892 334.152ZM146.616 343.964C145.819 343.964 145.159 343.863 144.638 343.66C144.128 343.448 143.745 343.097 143.489 342.608C143.234 342.108 143.107 341.438 143.107 340.597L143.122 332.748H145.196L145.18 340.741C145.18 341.166 145.292 341.496 145.515 341.73C145.749 341.953 146.079 342.065 146.505 342.065H147.861V343.964H146.616ZM141.735 336.816V335.189H147.861V336.816H141.735ZM149.467 347.266V345.367H151.094C151.402 345.367 151.657 345.325 151.86 345.24C152.072 345.165 152.248 345.038 152.386 344.857C152.524 344.687 152.631 344.447 152.705 344.139L155.034 335.189H157.156L154.588 344.618C154.417 345.266 154.178 345.782 153.87 346.165C153.561 346.559 153.162 346.84 152.673 347.011C152.195 347.181 151.599 347.266 150.886 347.266H149.467ZM152.163 343.66V341.906H154.013V343.66H152.163ZM151.413 343.66L148.605 335.189H150.839L153.503 343.66H151.413ZM167.547 344.155C166.494 344.155 165.59 343.969 164.835 343.597C164.08 343.224 163.463 342.74 162.985 342.145C162.517 341.549 162.171 340.9 161.948 340.199C161.724 339.497 161.613 338.821 161.613 338.172V337.821C161.613 337.098 161.724 336.386 161.948 335.684C162.182 334.982 162.538 334.344 163.016 333.769C163.495 333.195 164.101 332.738 164.835 332.397C165.58 332.046 166.457 331.871 167.467 331.871C168.52 331.871 169.435 332.062 170.211 332.445C170.998 332.817 171.626 333.349 172.094 334.041C172.562 334.721 172.844 335.519 172.939 336.434H170.658C170.573 335.902 170.382 335.455 170.084 335.093C169.797 334.721 169.43 334.445 168.983 334.264C168.536 334.072 168.031 333.977 167.467 333.977C166.893 333.977 166.383 334.078 165.936 334.28C165.489 334.471 165.117 334.748 164.819 335.109C164.521 335.471 164.293 335.896 164.133 336.386C163.984 336.875 163.91 337.417 163.91 338.013C163.91 338.587 163.984 339.119 164.133 339.608C164.293 340.098 164.527 340.528 164.835 340.9C165.144 341.262 165.521 341.544 165.968 341.746C166.425 341.948 166.952 342.049 167.547 342.049C168.419 342.049 169.153 341.836 169.749 341.411C170.355 340.975 170.722 340.369 170.85 339.592H173.131C173.025 340.422 172.743 341.182 172.285 341.874C171.828 342.565 171.201 343.118 170.403 343.533C169.605 343.948 168.653 344.155 167.547 344.155ZM178.744 344.155C177.999 344.155 177.345 344.027 176.781 343.772C176.228 343.517 175.766 343.177 175.393 342.751C175.032 342.315 174.755 341.831 174.564 341.299C174.383 340.768 174.293 340.225 174.293 339.672V339.369C174.293 338.795 174.383 338.242 174.564 337.71C174.755 337.167 175.032 336.689 175.393 336.274C175.766 335.849 176.223 335.514 176.765 335.269C177.308 335.014 177.935 334.886 178.648 334.886C179.584 334.886 180.366 335.093 180.993 335.508C181.631 335.912 182.11 336.45 182.429 337.12C182.748 337.779 182.908 338.492 182.908 339.257V340.055H175.234V338.699H181.52L180.834 339.369C180.834 338.816 180.754 338.343 180.594 337.949C180.435 337.556 180.19 337.252 179.86 337.04C179.541 336.827 179.137 336.721 178.648 336.721C178.159 336.721 177.744 336.832 177.404 337.056C177.063 337.279 176.803 337.603 176.622 338.029C176.452 338.444 176.367 338.944 176.367 339.529C176.367 340.071 176.452 340.555 176.622 340.98C176.792 341.395 177.053 341.725 177.404 341.969C177.755 342.203 178.201 342.32 178.744 342.32C179.286 342.32 179.727 342.214 180.068 342.001C180.408 341.778 180.626 341.507 180.722 341.188H182.764C182.636 341.783 182.392 342.304 182.03 342.751C181.668 343.198 181.206 343.543 180.642 343.788C180.089 344.033 179.456 344.155 178.744 344.155ZM184.76 343.852V335.189H186.515V338.906H186.355C186.355 338.024 186.472 337.29 186.706 336.705C186.94 336.109 187.286 335.662 187.743 335.365C188.211 335.067 188.791 334.918 189.482 334.918H189.578C190.61 334.918 191.391 335.253 191.923 335.923C192.455 336.582 192.721 337.572 192.721 338.89V343.852H190.503V338.699C190.503 338.167 190.349 337.736 190.041 337.407C189.743 337.077 189.328 336.912 188.796 336.912C188.254 336.912 187.812 337.082 187.472 337.423C187.142 337.752 186.978 338.199 186.978 338.763V343.852H184.76ZM198.87 343.964C198.072 343.964 197.413 343.863 196.892 343.66C196.381 343.448 195.998 343.097 195.743 342.608C195.488 342.108 195.36 341.438 195.36 340.597L195.376 332.748H197.45L197.434 340.741C197.434 341.166 197.546 341.496 197.769 341.73C198.003 341.953 198.333 342.065 198.758 342.065H200.114V343.964H198.87ZM193.988 336.816V335.189H200.114V336.816H193.988ZM205.805 344.155C205.061 344.155 204.407 344.027 203.843 343.772C203.29 343.517 202.827 343.177 202.455 342.751C202.093 342.315 201.817 341.831 201.625 341.299C201.445 340.768 201.354 340.225 201.354 339.672V339.369C201.354 338.795 201.445 338.242 201.625 337.71C201.817 337.167 202.093 336.689 202.455 336.274C202.827 335.849 203.285 335.514 203.827 335.269C204.369 335.014 204.997 334.886 205.709 334.886C206.645 334.886 207.427 335.093 208.055 335.508C208.693 335.912 209.171 336.45 209.49 337.12C209.809 337.779 209.969 338.492 209.969 339.257V340.055H202.295V338.699H208.581L207.895 339.369C207.895 338.816 207.815 338.343 207.656 337.949C207.496 337.556 207.252 337.252 206.922 337.04C206.603 336.827 206.199 336.721 205.709 336.721C205.22 336.721 204.805 336.832 204.465 337.056C204.125 337.279 203.864 337.603 203.683 338.029C203.513 338.444 203.428 338.944 203.428 339.529C203.428 340.071 203.513 340.555 203.683 340.98C203.854 341.395 204.114 341.725 204.465 341.969C204.816 342.203 205.263 342.32 205.805 342.32C206.348 342.32 206.789 342.214 207.129 342.001C207.47 341.778 207.688 341.507 207.783 341.188H209.825C209.698 341.783 209.453 342.304 209.092 342.751C208.73 343.198 208.267 343.543 207.704 343.788C207.151 344.033 206.518 344.155 205.805 344.155ZM211.821 343.852V335.189H213.576V338.858H213.528C213.528 337.614 213.794 336.673 214.326 336.035C214.858 335.397 215.64 335.078 216.671 335.078H216.99V337.008H216.384C215.64 337.008 215.06 337.21 214.645 337.614C214.241 338.008 214.039 338.582 214.039 339.337V343.852H211.821Z" fill="#05070F"/>
<circle cx="232.141" cy="338.852" r="5.98251" fill="#E81B43"/>
<path d="M341.444 342.84L345.432 338.852L341.444 334.864" stroke="#05070F" stroke-width="1.32942" stroke-linecap="round" stroke-linejoin="round"/>
</g>
<mask id="path-55-outside-1_2_485" maskUnits="userSpaceOnUse" x="269.745" y="354.121" width="41" height="41" fill="black">
<rect fill="white" x="269.745" y="354.121" width="41" height="41"/>
<path d="M307.223 385.349L296.95 375.032C296.892 374.974 296.846 374.905 296.816 374.829C296.785 374.753 296.771 374.671 296.773 374.589C296.796 374.422 296.884 374.271 297.017 374.167L303.659 369.563C304.011 369.323 304.285 368.986 304.45 368.593C304.615 368.2 304.663 367.768 304.588 367.349C304.526 366.934 304.348 366.545 304.073 366.228C303.799 365.91 303.44 365.678 303.038 365.556L274.813 357.186C274.523 357.104 274.217 357.1 273.926 357.174C273.634 357.248 273.367 357.398 273.152 357.608C272.967 357.824 272.839 358.084 272.781 358.362C272.722 358.641 272.735 358.93 272.818 359.202L281.254 387.318C281.374 387.716 281.604 388.073 281.917 388.347C282.23 388.62 282.614 388.801 283.024 388.866C283.444 388.941 283.876 388.893 284.268 388.728C284.661 388.563 284.998 388.289 285.239 387.937L289.844 381.294C289.902 381.23 289.975 381.181 290.055 381.151C290.136 381.12 290.222 381.109 290.308 381.117C290.47 381.112 290.628 381.167 290.751 381.273L301.09 391.612C301.505 392.025 302.066 392.256 302.651 392.256C303.236 392.256 303.798 392.025 304.213 391.612L307.334 388.491C307.534 388.278 307.69 388.027 307.793 387.753C307.896 387.48 307.944 387.188 307.934 386.896C307.923 386.604 307.855 386.316 307.733 386.051C307.611 385.785 307.438 385.546 307.223 385.347"/>
</mask>
<path d="M307.223 385.349L296.95 375.032C296.892 374.974 296.846 374.905 296.816 374.829C296.785 374.753 296.771 374.671 296.773 374.589C296.796 374.422 296.884 374.271 297.017 374.167L303.659 369.563C304.011 369.323 304.285 368.986 304.45 368.593C304.615 368.2 304.663 367.768 304.588 367.349C304.526 366.934 304.348 366.545 304.073 366.228C303.799 365.91 303.44 365.678 303.038 365.556L274.813 357.186C274.523 357.104 274.217 357.1 273.926 357.174C273.634 357.248 273.367 357.398 273.152 357.608C272.967 357.824 272.839 358.084 272.781 358.362C272.722 358.641 272.735 358.93 272.818 359.202L281.254 387.318C281.374 387.716 281.604 388.073 281.917 388.347C282.23 388.62 282.614 388.801 283.024 388.866C283.444 388.941 283.876 388.893 284.268 388.728C284.661 388.563 284.998 388.289 285.239 387.937L289.844 381.294C289.902 381.23 289.975 381.181 290.055 381.151C290.136 381.12 290.222 381.109 290.308 381.117C290.47 381.112 290.628 381.167 290.751 381.273L301.09 391.612C301.505 392.025 302.066 392.256 302.651 392.256C303.236 392.256 303.798 392.025 304.213 391.612L307.334 388.491C307.534 388.278 307.69 388.027 307.793 387.753C307.896 387.48 307.944 387.188 307.934 386.896C307.923 386.604 307.855 386.316 307.733 386.051C307.611 385.785 307.438 385.546 307.223 385.347" fill="black"/>
<path d="M296.95 375.032L298.767 373.222L298.762 373.217L298.757 373.212L296.95 375.032ZM296.773 374.589L294.232 374.242L294.214 374.376L294.209 374.511L296.773 374.589ZM297.017 374.167L295.556 372.059L295.501 372.097L295.448 372.138L297.017 374.167ZM303.659 369.563L302.21 367.447L302.204 367.451L302.198 367.455L303.659 369.563ZM304.588 367.349L302.051 367.728L302.057 367.763L302.063 367.797L304.588 367.349ZM303.038 365.556L303.779 363.101L303.767 363.097L303.038 365.556ZM274.813 357.186L275.542 354.727L275.529 354.723L275.515 354.719L274.813 357.186ZM273.152 357.608L271.357 355.776L271.277 355.854L271.205 355.939L273.152 357.608ZM272.818 359.202L275.275 358.465L275.272 358.454L272.818 359.202ZM281.254 387.318L278.797 388.055L278.798 388.057L281.254 387.318ZM283.024 388.866L283.473 386.341L283.452 386.337L283.43 386.334L283.024 388.866ZM285.239 387.937L283.131 386.476L283.127 386.482L283.122 386.488L285.239 387.937ZM289.844 381.294L287.954 379.56L287.836 379.689L287.736 379.833L289.844 381.294ZM290.308 381.117L290.049 383.669L290.224 383.687L290.399 383.681L290.308 381.117ZM290.751 381.273L292.565 379.459L292.497 379.392L292.425 379.33L290.751 381.273ZM301.09 391.612L299.276 393.426L299.282 393.431L301.09 391.612ZM304.213 391.612L306.021 393.431L306.026 393.426L304.213 391.612ZM307.334 388.491L309.148 390.305L309.175 390.277L309.203 390.248L307.334 388.491ZM307.223 385.349L309.041 383.539L298.767 373.222L296.95 375.032L295.132 376.842L305.406 387.159L307.223 385.349ZM296.95 375.032L298.757 373.212C298.948 373.402 299.098 373.629 299.198 373.879L296.816 374.829L294.433 375.779C294.593 376.182 294.835 376.547 295.143 376.852L296.95 375.032ZM296.816 374.829L299.198 373.879C299.298 374.129 299.345 374.398 299.337 374.667L296.773 374.589L294.209 374.511C294.196 374.945 294.272 375.376 294.433 375.779L296.816 374.829ZM296.773 374.589L299.315 374.936C299.247 375.435 298.985 375.888 298.586 376.196L297.017 374.167L295.448 372.138C294.782 372.653 294.346 373.409 294.232 374.242L296.773 374.589ZM297.017 374.167L298.478 376.275L305.12 371.671L303.659 369.563L302.198 367.455L295.556 372.059L297.017 374.167ZM303.659 369.563L305.108 371.68C305.867 371.16 306.459 370.433 306.815 369.585L304.45 368.593L302.085 367.601C302.111 367.538 302.154 367.485 302.21 367.447L303.659 369.563ZM304.45 368.593L306.815 369.585C307.171 368.738 307.274 367.805 307.114 366.9L304.588 367.349L302.063 367.797C302.051 367.731 302.059 367.663 302.085 367.601L304.45 368.593ZM304.588 367.349L307.125 366.97C306.991 366.074 306.606 365.235 306.013 364.55L304.073 366.228L302.133 367.906C302.09 367.855 302.061 367.794 302.051 367.728L304.588 367.349ZM304.073 366.228L306.013 364.55C305.421 363.865 304.646 363.363 303.779 363.101L303.038 365.556L302.297 368.012C302.233 367.993 302.176 367.956 302.133 367.906L304.073 366.228ZM303.038 365.556L303.767 363.097L275.542 354.727L274.813 357.186L274.084 359.645L302.309 368.016L303.038 365.556ZM274.813 357.186L275.515 354.719C274.791 354.513 274.024 354.502 273.294 354.688L273.926 357.174L274.557 359.66C274.41 359.697 274.256 359.695 274.11 359.653L274.813 357.186ZM273.926 357.174L273.294 354.688C272.564 354.873 271.895 355.249 271.357 355.776L273.152 357.608L274.947 359.441C274.839 359.547 274.704 359.622 274.557 359.66L273.926 357.174ZM273.152 357.608L271.205 355.939C270.738 356.483 270.417 357.135 270.27 357.837L272.781 358.362L275.291 358.888C275.261 359.032 275.195 359.166 275.099 359.278L273.152 357.608ZM272.781 358.362L270.27 357.837C270.123 358.538 270.156 359.265 270.365 359.95L272.818 359.202L275.272 358.454C275.315 358.595 275.321 358.744 275.291 358.888L272.781 358.362ZM272.818 359.202L270.362 359.939L278.797 388.055L281.254 387.318L283.711 386.581L275.275 358.465L272.818 359.202ZM281.254 387.318L278.798 388.057C279.057 388.916 279.552 389.686 280.228 390.277L281.917 388.347L283.606 386.416C283.655 386.459 283.692 386.516 283.71 386.579L281.254 387.318ZM281.917 388.347L280.228 390.277C280.903 390.868 281.732 391.257 282.618 391.399L283.024 388.866L283.43 386.334C283.495 386.344 283.556 386.373 283.606 386.416L281.917 388.347ZM283.024 388.866L282.576 391.392C283.481 391.553 284.413 391.449 285.261 391.093L284.268 388.728L283.276 386.363C283.338 386.337 283.407 386.329 283.473 386.341L283.024 388.866ZM284.268 388.728L285.261 391.093C286.109 390.738 286.836 390.145 287.355 389.386L285.239 387.937L283.122 386.488C283.16 386.432 283.214 386.389 283.276 386.363L284.268 388.728ZM285.239 387.937L287.347 389.399L291.952 382.755L289.844 381.294L287.736 379.833L283.131 386.476L285.239 387.937ZM289.844 381.294L291.734 383.028C291.523 383.259 291.26 383.437 290.968 383.548L290.055 381.151L289.143 378.754C288.689 378.926 288.282 379.202 287.954 379.56L289.844 381.294ZM290.055 381.151L290.968 383.548C290.675 383.659 290.361 383.701 290.049 383.669L290.308 381.117L290.567 378.565C290.084 378.516 289.596 378.581 289.143 378.754L290.055 381.151ZM290.308 381.117L290.399 383.681C289.915 383.698 289.443 383.532 289.076 383.216L290.751 381.273L292.425 379.33C291.813 378.802 291.024 378.525 290.217 378.554L290.308 381.117ZM290.751 381.273L288.937 383.087L299.276 393.426L301.09 391.612L302.904 389.798L292.565 379.459L290.751 381.273ZM301.09 391.612L299.282 393.431C300.177 394.321 301.389 394.821 302.651 394.821V392.256V389.691C302.744 389.691 302.833 389.728 302.898 389.793L301.09 391.612ZM302.651 392.256V394.821C303.914 394.821 305.126 394.321 306.021 393.431L304.213 391.612L302.404 389.793C302.47 389.728 302.559 389.691 302.651 389.691V392.256ZM304.213 391.612L306.026 393.426L309.148 390.305L307.334 388.491L305.52 386.677L302.399 389.798L304.213 391.612ZM307.334 388.491L309.203 390.248C309.635 389.788 309.972 389.247 310.194 388.656L307.793 387.753L305.392 386.851C305.409 386.807 305.433 386.768 305.465 386.734L307.334 388.491ZM307.793 387.753L310.194 388.656C310.416 388.066 310.519 387.437 310.497 386.806L307.934 386.896L305.37 386.986C305.369 386.94 305.376 386.894 305.392 386.851L307.793 387.753ZM307.934 386.896L310.497 386.806C310.475 386.175 310.328 385.555 310.065 384.981L307.733 386.051L305.402 387.12C305.383 387.078 305.372 387.033 305.37 386.986L307.934 386.896ZM307.733 386.051L310.065 384.981C309.801 384.407 309.427 383.891 308.964 383.463L307.223 385.347L305.483 387.231C305.449 387.2 305.421 387.162 305.402 387.12L307.733 386.051Z" fill="white" mask="url(#path-55-outside-1_2_485)"/>
<defs>
<filter id="filter0_f_2_485" x="-153.509" y="208.7" width="550.462" height="641.136" filterUnits="userSpaceOnUse" color-interpolation-filters="sRGB">
<feFlood flood-opacity="0" result="BackgroundImageFix"/>
<feBlend mode="normal" in="SourceGraphic" in2="BackgroundImageFix" result="shape"/>
<feGaussianBlur stdDeviation="96.2908" result="effect1_foregroundBlur_2_485"/>
</filter>
<filter id="filter1_f_2_485" x="-2.65353" y="-95.4181" width="550.462" height="716.564" filterUnits="userSpaceOnUse" color-interpolation-filters="sRGB">
<feFlood flood-opacity="0" result="BackgroundImageFix"/>
<feBlend mode="normal" in="SourceGraphic" in2="BackgroundImageFix" result="shape"/>
<feGaussianBlur stdDeviation="96.2908" result="effect1_foregroundBlur_2_485"/>
</filter>
<filter id="filter2_d_2_485" x="54.3182" y="52.2278" width="96.3551" height="64.1938" filterUnits="userSpaceOnUse" color-interpolation-filters="sRGB">
<feFlood flood-opacity="0" result="BackgroundImageFix"/>
<feColorMatrix in="SourceAlpha" type="matrix" values="0 0 0 0 0 0 0 0 0 0 0 0 0 0 0 0 0 0 127 0" result="hardAlpha"/>
<feOffset dy="3.20969"/>
<feGaussianBlur stdDeviation="6.41939"/>
<feComposite in2="hardAlpha" operator="out"/>
<feColorMatrix type="matrix" values="0 0 0 0 0.610577 0 0 0 0 0.610577 0 0 0 0 0.610577 0 0 0 0.25 0"/>
<feBlend mode="normal" in2="BackgroundImageFix" result="effect1_dropShadow_2_485"/>
<feBlend mode="normal" in="SourceGraphic" in2="effect1_dropShadow_2_485" result="shape"/>
</filter>
<filter id="filter3_d_2_485" x="291.033" y="52.2278" width="64.1938" height="64.1938" filterUnits="userSpaceOnUse" color-interpolation-filters="sRGB">
<feFlood flood-opacity="0" result="BackgroundImageFix"/>
<feColorMatrix in="SourceAlpha" type="matrix" values="0 0 0 0 0 0 0 0 0 0 0 0 0 0 0 0 0 0 127 0" result="hardAlpha"/>
<feOffset dy="3.20969"/>
<feGaussianBlur stdDeviation="6.41939"/>
<feComposite in2="hardAlpha" operator="out"/>
<feColorMatrix type="matrix" values="0 0 0 0 0.610577 0 0 0 0 0.610577 0 0 0 0 0.610577 0 0 0 0.25 0"/>
<feBlend mode="normal" in2="BackgroundImageFix" result="effect1_dropShadow_2_485"/>
<feBlend mode="normal" in="SourceGraphic" in2="effect1_dropShadow_2_485" result="shape"/>
</filter>
<filter id="filter4_d_2_485" x="54.3182" y="103.583" width="300.909" height="208.63" filterUnits="userSpaceOnUse" color-interpolation-filters="sRGB">
<feFlood flood-opacity="0" result="BackgroundImageFix"/>
<feColorMatrix in="SourceAlpha" type="matrix" values="0 0 0 0 0 0 0 0 0 0 0 0 0 0 0 0 0 0 127 0" result="hardAlpha"/>
<feOffset dy="3.20969"/>
<feGaussianBlur stdDeviation="6.41939"/>
<feComposite in2="hardAlpha" operator="out"/>
<feColorMatrix type="matrix" values="0 0 0 0 0.610577 0 0 0 0 0.610577 0 0 0 0 0.610577 0 0 0 0.25 0"/>
<feBlend mode="normal" in2="BackgroundImageFix" result="effect1_dropShadow_2_485"/>
<feBlend mode="normal" in="SourceGraphic" in2="effect1_dropShadow_2_485" result="shape"/>
</filter>
<filter id="filter5_d_2_485" x="54.3182" y="305.794" width="300.909" height="80.2423" filterUnits="userSpaceOnUse" color-interpolation-filters="sRGB">
<feFlood flood-opacity="0" result="BackgroundImageFix"/>
<feColorMatrix in="SourceAlpha" type="matrix" values="0 0 0 0 0 0 0 0 0 0 0 0 0 0 0 0 0 0 127 0" result="hardAlpha"/>
<feOffset dy="3.20969"/>
<feGaussianBlur stdDeviation="6.41939"/>
<feComposite in2="hardAlpha" operator="out"/>
<feColorMatrix type="matrix" values="0 0 0 0 0.610577 0 0 0 0 0.610577 0 0 0 0 0.610577 0 0 0 0.25 0"/>
<feBlend mode="normal" in2="BackgroundImageFix" result="effect1_dropShadow_2_485"/>
<feBlend mode="normal" in="SourceGraphic" in2="effect1_dropShadow_2_485" result="shape"/>
</filter>
<filter id="filter6_d_2_485" x="54.3182" y="373.197" width="300.909" height="77.0326" filterUnits="userSpaceOnUse" color-interpolation-filters="sRGB">
<feFlood flood-opacity="0" result="BackgroundImageFix"/>
<feColorMatrix in="SourceAlpha" type="matrix" values="0 0 0 0 0 0 0 0 0 0 0 0 0 0 0 0 0 0 127 0" result="hardAlpha"/>
<feOffset dy="3.20969"/>
<feGaussianBlur stdDeviation="6.41939"/>
<feComposite in2="hardAlpha" operator="out"/>
<feColorMatrix type="matrix" values="0 0 0 0 0.610577 0 0 0 0 0.610577 0 0 0 0 0.610577 0 0 0 0.25 0"/>
<feBlend mode="normal" in2="BackgroundImageFix" result="effect1_dropShadow_2_485"/>
<feBlend mode="normal" in="SourceGraphic" in2="effect1_dropShadow_2_485" result="shape"/>
</filter>
<filter id="filter7_d_2_485" x="54.3182" y="429.367" width="300.909" height="77.0326" filterUnits="userSpaceOnUse" color-interpolation-filters="sRGB">
<feFlood flood-opacity="0" result="BackgroundImageFix"/>
<feColorMatrix in="SourceAlpha" type="matrix" values="0 0 0 0 0 0 0 0 0 0 0 0 0 0 0 0 0 0 127 0" result="hardAlpha"/>
<feOffset dy="3.20969"/>
<feGaussianBlur stdDeviation="6.41939"/>
<feComposite in2="hardAlpha" operator="out"/>
<feColorMatrix type="matrix" values="0 0 0 0 0.610577 0 0 0 0 0.610577 0 0 0 0 0.610577 0 0 0 0.25 0"/>
<feBlend mode="normal" in2="BackgroundImageFix" result="effect1_dropShadow_2_485"/>
<feBlend mode="normal" in="SourceGraphic" in2="effect1_dropShadow_2_485" result="shape"/>
</filter>
<filter id="filter8_dd_2_485" x="-3.00407e-05" y="271.606" width="410.4" height="136.202" filterUnits="userSpaceOnUse" color-interpolation-filters="sRGB">
<feFlood flood-opacity="0" result="BackgroundImageFix"/>
<feColorMatrix in="SourceAlpha" type="matrix" values="0 0 0 0 0 0 0 0 0 0 0 0 0 0 0 0 0 0 127 0" result="hardAlpha"/>
<feOffset dy="3.98834"/>
<feGaussianBlur stdDeviation="7.97668"/>
<feComposite in2="hardAlpha" operator="out"/>
<feColorMatrix type="matrix" values="0 0 0 0 0.610577 0 0 0 0 0.610577 0 0 0 0 0.610577 0 0 0 0.25 0"/>
<feBlend mode="normal" in2="BackgroundImageFix" result="effect1_dropShadow_2_485"/>
<feColorMatrix in="SourceAlpha" type="matrix" values="0 0 0 0 0 0 0 0 0 0 0 0 0 0 0 0 0 0 127 0" result="hardAlpha"/>
<feOffset dx="0.855" dy="0.855"/>
<feGaussianBlur stdDeviation="17.1"/>
<feComposite in2="hardAlpha" operator="out"/>
<feColorMatrix type="matrix" values="0 0 0 0 0.901699 0 0 0 0 0.184363 0 0 0 0 0.921086 0 0 0 1 0"/>
<feBlend mode="normal" in2="effect1_dropShadow_2_485" result="effect2_dropShadow_2_485"/>
<feBlend mode="normal" in="SourceGraphic" in2="effect2_dropShadow_2_485" result="shape"/>
</filter>
<linearGradient id="paint0_linear_2_485" x1="137.835" y1="61.8569" x2="67.1865" y2="100.427" gradientUnits="userSpaceOnUse">
<stop stop-color="#B5AEFF"/>
<stop offset="1" stop-color="#F0DDFF"/>
</linearGradient>
<linearGradient id="paint1_linear_2_485" x1="170.67" y1="159.752" x2="268.566" y2="200.275" gradientUnits="userSpaceOnUse">
<stop stop-color="#B6AFFF"/>
<stop offset="1" stop-color="#E50D40"/>
</linearGradient>
<linearGradient id="paint2_linear_2_485" x1="357.12" y1="4.27499" x2="-31.815" y2="58.3636" gradientUnits="userSpaceOnUse">
<stop stop-color="#B5AEFF"/>
<stop offset="1" stop-color="#F0DDFF"/>
</linearGradient>
<clipPath id="clip0_2_485">
<rect x="56.0151" y="7.93869" width="297.296" height="646.359" rx="42.8934" fill="white"/>
</clipPath>
<clipPath id="clip1_2_485">
<path d="M54.318 31.3643C54.318 17.183 65.8142 5.6868 79.9955 5.6868H329.549C343.731 5.6868 355.227 17.183 355.227 31.3643V631.577C355.227 645.758 343.73 657.255 329.549 657.255H79.9955C65.8142 657.255 54.318 645.758 54.318 631.577V31.3643Z" fill="white"/>
</clipPath>
</defs>
</svg>
