<svg width="100" height="100" viewBox="0 0 100 100" fill="none" xmlns="http://www.w3.org/2000/svg">
<path d="M12.793 10.4297C10.9766 11.2891 9.96097 12.8906 9.9805 14.9414C9.9805 17.9492 11.9532 19.9805 14.9219 20.0391L16.25 20.0586L19.3555 23.1641L22.461 26.2695V36.9531V47.6562H30.4688H38.4766V45.0195V42.3828H33.0078H27.5391V33.0664V23.7305L23.8086 20L20.0586 16.25L20.0391 14.9219C19.9805 12.7344 18.75 10.918 16.8164 10.2344C15.6446 9.80469 13.9063 9.90235 12.793 10.4297Z" fill="url(#paint0_linear_2_549)"/>
<path d="M34.0235 10.2148C33.0078 10.5273 31.5235 11.9727 31.1133 13.0469C30.586 14.4336 30.6836 16.1133 31.3672 17.3828C31.6797 17.9492 32.2071 18.6328 32.5586 18.8867L33.2032 19.375V28.4375V37.5H35.8399H38.4766V28.4375V19.375L39.1407 18.8672C40.1563 18.1055 40.8789 16.4844 40.8594 14.9805C40.8594 13.5547 40.5274 12.6562 39.6289 11.6211C38.3594 10.1758 35.9961 9.57031 34.0235 10.2148Z" fill="url(#paint1_linear_2_549)"/>
<path d="M59.4141 10.4688C58.8477 10.7422 58.1055 11.3281 57.7734 11.7383L57.168 12.5H50.1562H43.1641V21.2891V30.0781H45.8008H48.4375V23.8281V17.5781H52.8906H57.3242L57.6953 18.125C58.3984 19.1797 60.1562 20.0977 61.543 20.1172C64.6094 20.1367 67.1094 17.3828 66.7188 14.3945C66.25 10.8984 62.5391 8.90625 59.4141 10.4688Z" fill="url(#paint2_linear_2_549)"/>
<path d="M13.4375 26.8164C12.168 27.2266 11.0352 28.1836 10.4883 29.3164C9.4336 31.4258 9.98047 34.1797 11.7383 35.5859L12.5 36.1914V46.9141V57.6172H25.4883H38.4766V54.9805V52.3438H28.0273H17.5781V44.2383V36.1328L18.3789 35.4102C19.6094 34.2969 20.0195 33.3789 20.0195 31.6406C20.0195 30.5859 19.9023 29.9805 19.6484 29.4922C19.1406 28.5352 18.2031 27.5781 17.2852 27.1094C16.3477 26.6211 14.4336 26.4844 13.4375 26.8164Z" fill="url(#paint3_linear_2_549)"/>
<path d="M54.8242 33.2617L43.125 36.6211L43.2227 47.6562C43.3008 59.5312 43.3594 60.2148 44.4336 64.4922C46.7773 73.6719 52.6367 81.7969 60.7031 87.0117C62.4805 88.1445 66.1914 90.0391 66.6602 90.0391C67.1875 90.0391 70.9961 88.0664 72.9492 86.7773C82.2461 80.6445 88.3008 70.9961 89.7461 60C89.9805 58.2812 90.0391 55.4688 90.0391 47.168C90.0391 37.2266 90.0195 36.543 89.707 36.4453C87.832 35.8984 67.3633 30.0781 66.9922 30C66.6797 29.9414 62.1094 31.1719 54.8242 33.2617ZM68.6914 48.8867C71.1719 50.1758 72.1484 52.9492 71.0156 55.3906C70.7617 55.9375 70.2344 56.6406 69.8437 56.9531L69.1406 57.5195V62.832V68.1641H66.6992H64.2578V62.8906V57.6172L63.4375 56.875C61.4258 55.0781 61.25 52.1289 63.0469 50.1562C64.1211 48.9648 65.4297 48.3984 66.8945 48.4961C67.5586 48.5352 68.3594 48.7305 68.6914 48.8867Z" fill="url(#paint4_linear_2_549)"/>
<path d="M12.793 60.4297C10.9766 61.289 9.96097 62.8906 9.9805 64.9414C9.9805 67.0312 10.8008 68.4961 12.5 69.414C14.5899 70.5468 16.9141 70.2148 18.5938 68.5351L19.5508 67.5781H29.0039H38.4766V65.039V62.5H29.043H19.6094L18.5352 61.4648C16.8946 59.8828 14.7657 59.4922 12.793 60.4297Z" fill="url(#paint5_linear_2_549)"/>
<path d="M19.9609 76.2109L16.2109 79.9805H14.9024C13.8086 79.9805 13.3984 80.0976 12.5391 80.5469C10.8008 81.5039 9.98048 82.9492 9.98048 85.0586C9.96095 87.9101 12.0899 90.0391 14.9414 90.0195C17.9492 90.0195 19.9805 88.0469 20.0391 85.0781L20.0586 83.75L23.1641 80.6445L26.2695 77.5391H34.8047H43.3594V75V72.4609H33.5352H23.7305L19.9609 76.2109Z" fill="url(#paint6_linear_2_549)"/>
<path d="M30.2734 80.0586C28.2226 80.7227 26.8359 82.4024 26.6211 84.4532C26.5039 85.6836 26.7773 86.7383 27.5195 87.9297C28.3594 89.2383 29.5508 89.8829 31.3672 90.0001C32.6367 90.0782 32.9297 90.0391 33.8867 89.5508C34.4922 89.2579 35.2344 88.6915 35.5859 88.2618L36.1914 87.5001H43.1055H50V84.961V82.4219H43.0664H36.1328L35.4101 81.6211C35.0195 81.1915 34.3359 80.6446 33.9062 80.4297C33.0469 80.0001 31.0742 79.7852 30.2734 80.0586Z" fill="url(#paint7_linear_2_549)"/>
<defs>
<linearGradient id="paint0_linear_2_549" x1="38.4766" y1="47.6562" x2="3.28268" y2="39.7398" gradientUnits="userSpaceOnUse">
<stop stop-color="#B5AEFF"/>
<stop offset="1" stop-color="#F0DDFF"/>
</linearGradient>
<linearGradient id="paint1_linear_2_549" x1="40.8598" y1="37.5" x2="27.9301" y2="36.0917" gradientUnits="userSpaceOnUse">
<stop stop-color="#B5AEFF"/>
<stop offset="1" stop-color="#F0DDFF"/>
</linearGradient>
<linearGradient id="paint2_linear_2_549" x1="66.7591" y1="30.0781" x2="39.4581" y2="20.5662" gradientUnits="userSpaceOnUse">
<stop stop-color="#B5AEFF"/>
<stop offset="1" stop-color="#F0DDFF"/>
</linearGradient>
<linearGradient id="paint3_linear_2_549" x1="38.4766" y1="57.6172" x2="4.04901" y2="48.1871" gradientUnits="userSpaceOnUse">
<stop stop-color="#B5AEFF"/>
<stop offset="1" stop-color="#F0DDFF"/>
</linearGradient>
<linearGradient id="paint4_linear_2_549" x1="90.0391" y1="90.0391" x2="32.2882" y2="76.6136" gradientUnits="userSpaceOnUse">
<stop stop-color="#B5AEFF"/>
<stop offset="1" stop-color="#F0DDFF"/>
</linearGradient>
<linearGradient id="paint5_linear_2_549" x1="38.4766" y1="70.078" x2="16.6961" y2="51.8864" gradientUnits="userSpaceOnUse">
<stop stop-color="#B5AEFF"/>
<stop offset="1" stop-color="#F0DDFF"/>
</linearGradient>
<linearGradient id="paint6_linear_2_549" x1="43.3594" y1="90.0197" x2="10.546" y2="71.4609" gradientUnits="userSpaceOnUse">
<stop stop-color="#B5AEFF"/>
<stop offset="1" stop-color="#F0DDFF"/>
</linearGradient>
<linearGradient id="paint7_linear_2_549" x1="50" y1="90.0315" x2="29.4232" y2="75.8371" gradientUnits="userSpaceOnUse">
<stop stop-color="#B5AEFF"/>
<stop offset="1" stop-color="#F0DDFF"/>
</linearGradient>
</defs>
</svg>
