<svg width="100" height="100" viewBox="0 0 100 100" fill="none" xmlns="http://www.w3.org/2000/svg">
<path d="M35.4492 4.76562C33.7891 5.48828 32.6172 7.28516 32.6172 9.12109C32.6172 10.8789 32.4609 10.9375 28.5156 10.9375H25.1953V13.5742V16.2109H37.3047H49.4141V13.5742V10.9375H46.2305C42.3438 10.9375 42.3047 10.918 42.1289 9.10156C41.9336 7.07031 40.9766 5.60547 39.3555 4.86328C38.418 4.43359 36.3281 4.375 35.4492 4.76562Z" fill="url(#paint0_linear_2_537)"/>
<path d="M77.5391 9.12109C77.2656 9.29687 76.9531 9.58984 76.8164 9.76562C76.6211 10 76.582 15.7422 76.5625 35.1953V60.3516H78.6133H80.6641V35.1953C80.6641 11.6797 80.625 10.0391 80.3125 9.64843C79.6094 8.75 78.3984 8.53515 77.5391 9.12109Z" fill="url(#paint1_linear_2_537)"/>
<path d="M9.84375 15.1172C9.51172 15.2734 9.0625 15.625 8.82812 15.918L8.39844 16.4648V47.1875C8.39844 64.1016 8.4375 77.9297 8.49609 77.9297C8.55469 77.9297 9.02344 77.6172 9.55078 77.2461C11.1914 76.0547 13.5547 75.1953 15.1562 75.1953C15.9375 75.1953 15.9766 75.1758 16.0938 74.4531C16.6797 71.1523 18.7305 68.125 21.582 66.3672C23.9844 64.9023 27.3633 64.3164 29.9414 64.9414C30.293 65.0391 30.4688 64.8828 30.918 64.1602C32.207 62.1094 35.1172 60.1562 37.8906 59.4531C39.5117 59.043 42.168 59.1797 43.9648 59.7461C46.1719 60.4492 48.6523 62.3242 49.9609 64.3164C50.3125 64.8242 50.5469 65.0195 50.7617 64.9414C50.9375 64.8633 51.6992 64.668 52.4414 64.5117C56.8164 63.5742 61.7188 65.7617 64.2773 69.7852L65 70.957L65.1172 70.293C65.1953 69.9219 65.5078 67.793 65.8203 65.5469L66.4062 61.4844V39.1797C66.4062 18.3594 66.3867 16.8555 66.0547 16.2109C65.4102 14.9023 65.1172 14.8438 58.1641 14.8438H51.9531V16.4648C51.9531 17.8125 51.8945 18.1641 51.6016 18.418C51.2695 18.7305 50 18.75 37.3438 18.75H23.457L23.0664 18.2422C22.7344 17.8125 22.6562 17.4414 22.6562 16.2891V14.8438H16.5625C11.8945 14.8633 10.3125 14.9219 9.84375 15.1172ZM56.0547 27.3438C56.4258 27.7148 56.4453 27.9883 56.4453 32.4609C56.4453 36.582 56.4062 37.2266 56.1133 37.5391C55.8203 37.8711 54.9805 37.8906 37.4219 37.8906C27.3047 37.8906 18.9453 37.8125 18.8281 37.7344C18.2422 37.3633 18.1641 36.6602 18.1641 32.3633C18.1641 28.2227 18.1836 27.9492 18.5742 27.4609L18.9648 26.9531H37.3242C55.4102 26.9531 55.6641 26.9531 56.0547 27.3438ZM56.0547 44.9219C56.6016 45.4688 56.543 46.1719 55.918 46.6602C55.4102 47.0703 55.4102 47.0703 37.1875 47.0312C21.2891 46.9727 18.9258 46.9336 18.6719 46.6797C18.1641 46.1523 18.125 45.6055 18.5742 45.0586L18.9648 44.5312H37.3242C55.4102 44.5312 55.6641 44.5312 56.0547 44.9219ZM56.0547 53.125C56.5625 53.6328 56.543 54.375 56.0156 54.8828C55.5859 55.2734 55.4297 55.2734 37.3828 55.2734C20.1172 55.2734 19.1602 55.2539 18.75 54.9219C18.1641 54.4531 18.1641 53.5547 18.75 53.0859C19.1602 52.7539 20.1172 52.7344 37.4219 52.7344C55.4102 52.7344 55.6641 52.7344 56.0547 53.125Z" fill="url(#paint2_linear_2_537)"/>
<path d="M20.7031 32.4219V35.3516H37.3047H53.9062V32.4219V29.4922H37.3047H20.7031V32.4219Z" fill="url(#paint3_linear_2_537)"/>
<path d="M38.2227 61.9336C35.8203 62.5 33.3789 64.4922 32.2266 66.8555C31.5039 68.3594 31.3281 69.5312 31.6016 71.0938C31.7969 72.168 31.6797 72.7539 31.1719 73.0859C30.7813 73.3594 29.9414 73.2422 29.6289 72.8906C29.1211 72.3438 28.7891 69.9609 29.0234 68.5742L29.2188 67.4023L28.3398 67.2656C27.0313 67.0703 24.9219 67.4609 23.457 68.1836C21.7188 69.043 20.2734 70.5273 19.4336 72.3047C18.6523 73.9648 18.3398 75.5859 18.7891 75.5859C19.4141 75.5859 20.7422 76.7969 21.2109 77.793C21.8359 79.1406 21.875 81.25 21.2891 81.8359C20.7617 82.3633 20.0781 82.3242 19.5703 81.7773C19.2383 81.4258 19.1406 81.0742 19.1406 80.1953C19.1406 78.2227 18.5156 77.7344 16.0352 77.7344C10.9961 77.7344 7.1875 81.5625 7.1875 86.6211C7.1875 87.6758 7.32422 88.6914 7.53906 89.3945C8.33984 91.9531 10.7031 94.3359 13.2031 95.1172C14.4727 95.5078 14.9023 95.5078 38.2617 95.5078H62.0313L61.9531 94.1797C61.9141 93.3008 62.2461 90.3711 62.9688 85.3711C63.5742 81.2305 64.0625 77.7344 64.0625 77.5977C64.0625 77.1875 62.7344 77.2852 60.8398 77.832C59.2578 78.3008 59.1016 78.3008 58.6719 78.0273C57.9688 77.5781 57.8516 76.8164 58.418 76.2695C58.9453 75.7617 60.9375 75.0781 62.4414 74.8828C63.457 74.7656 63.457 74.7461 63.3398 74.1406C62.7344 70.9961 60.2539 68.1641 57.2461 67.2266C55.8203 66.7969 52.793 66.7969 51.5625 67.2656C49.8438 67.9102 49.2578 68.4766 48.3203 70.4492C47.6563 71.8164 47.3438 72.2852 46.9922 72.3828C46.4258 72.5195 45.8008 72.207 45.4883 71.6602C45.1758 71.0547 46.2891 68.418 47.4023 67.1875L48.2813 66.2109L47.5 65.1562C46.5234 63.8672 44.707 62.6367 43.0273 62.1094C41.6797 61.6992 39.5703 61.6211 38.2227 61.9336Z" fill="url(#paint4_linear_2_537)"/>
<path d="M68.75 62.9688C68.75 63.0078 68.4961 64.8633 68.1641 67.0898C67.8516 69.3164 67.5781 71.1719 67.5781 71.2109C67.5781 71.25 72.5391 71.2891 78.6133 71.2891C85.0781 71.2891 89.6484 71.2109 89.6484 71.1133C89.6484 70.8984 88.7305 64.4531 88.5742 63.5156L88.457 62.8906H78.6133C73.1836 62.8906 68.75 62.9297 68.75 62.9688Z" fill="url(#paint5_linear_2_537)"/>
<path d="M67.0898 74.6484C66.6797 76.9922 64.4531 93.2031 64.4531 93.8477C64.4531 94.4336 64.5703 94.7656 64.9023 95.0781C65.3125 95.4688 65.5664 95.5078 67.6367 95.5078H69.9219V91.6992C69.9219 87.8906 69.9219 87.8711 70.4102 87.4023C70.9766 86.8164 71.2891 86.7969 71.9531 87.3242L72.4609 87.7148V91.6211V95.5078H75.0977H77.7344V92.3242C77.7344 89.4727 77.7734 89.082 78.0859 88.8086C78.5352 88.3984 79.2969 88.3789 79.8047 88.75C80.1367 89.0039 80.1758 89.3359 80.2344 92.2656L80.293 95.5078H82.5391H84.7656V91.6992C84.7656 87.8906 84.7656 87.8711 85.2539 87.4023C85.8203 86.8164 86.1328 86.7969 86.7969 87.3242L87.3047 87.7148V91.6211V95.5078H89.6094C91.8359 95.5078 91.9336 95.4883 92.3828 95.0195C92.7344 94.6484 92.8516 94.3164 92.832 93.7695C92.793 93.0273 90.332 75.332 90.1367 74.4531L90.0391 74.0234H85.1562H80.2734V77.8125C80.2734 81.3281 80.2539 81.6211 79.8633 82.1094C79.375 82.7148 78.6719 82.7734 78.125 82.2266C77.7539 81.8555 77.7344 81.582 77.7344 77.9297V74.0234H72.4609H67.207L67.0898 74.6484Z" fill="url(#paint6_linear_2_537)"/>
<defs>
<linearGradient id="paint0_linear_2_537" x1="49.4141" y1="16.2109" x2="26.6236" y2="2.18345" gradientUnits="userSpaceOnUse">
<stop stop-color="#B5AEFF"/>
<stop offset="1" stop-color="#F0DDFF"/>
</linearGradient>
<linearGradient id="paint1_linear_2_537" x1="80.6641" y1="60.3516" x2="75.3452" y2="60.2257" gradientUnits="userSpaceOnUse">
<stop stop-color="#B5AEFF"/>
<stop offset="1" stop-color="#F0DDFF"/>
</linearGradient>
<linearGradient id="paint2_linear_2_537" x1="66.4062" y1="77.9297" x2="-3.61927" y2="58.7727" gradientUnits="userSpaceOnUse">
<stop stop-color="#B5AEFF"/>
<stop offset="1" stop-color="#F0DDFF"/>
</linearGradient>
<linearGradient id="paint3_linear_2_537" x1="53.9062" y1="35.3516" x2="42.6941" y2="16.4485" gradientUnits="userSpaceOnUse">
<stop stop-color="#B5AEFF"/>
<stop offset="1" stop-color="#F0DDFF"/>
</linearGradient>
<linearGradient id="paint4_linear_2_537" x1="64.0625" y1="95.5078" x2="5.0794" y2="65.9487" gradientUnits="userSpaceOnUse">
<stop stop-color="#B5AEFF"/>
<stop offset="1" stop-color="#F0DDFF"/>
</linearGradient>
<linearGradient id="paint5_linear_2_537" x1="89.6484" y1="71.2891" x2="71.876" y2="57.3936" gradientUnits="userSpaceOnUse">
<stop stop-color="#B5AEFF"/>
<stop offset="1" stop-color="#F0DDFF"/>
</linearGradient>
<linearGradient id="paint6_linear_2_537" x1="92.8341" y1="95.5078" x2="60.9364" y2="82.9712" gradientUnits="userSpaceOnUse">
<stop stop-color="#B5AEFF"/>
<stop offset="1" stop-color="#F0DDFF"/>
</linearGradient>
</defs>
</svg>
