<svg width="100" height="100" viewBox="0 0 100 100" fill="none" xmlns="http://www.w3.org/2000/svg">
<g clip-path="url(#clip0_2_573)">
<path d="M38.6132 0.839844C37.0507 3.51562 34.3554 11.1328 33.1054 16.5039C32.8124 17.6758 32.539 18.8086 32.4999 18.9844C32.4023 19.3164 32.9101 19.3359 41.3281 19.3359H50.2538L50.1171 18.4961C49.5117 14.6094 46.3867 5.17578 44.4921 1.50391L43.7109 0H41.4062H39.1015L38.6132 0.839844Z" fill="url(#paint0_linear_2_573)"/>
<path d="M35.3516 0.332029C34.1406 0.566404 30.3516 4.0039 27.7344 7.26562C24.9414 10.7227 20.3125 18.1055 20.3125 19.082C20.3125 19.2773 21.4453 19.3359 25.293 19.3359H30.2734L30.3516 18.8867C31.582 12.9883 34.4922 4.27734 36.25 1.23047C36.5039 0.781248 36.7188 0.371092 36.7188 0.312498C36.7188 0.175779 36.1133 0.195311 35.3516 0.332029Z" fill="url(#paint1_linear_2_573)"/>
<path d="M46.0938 0.273438C46.0938 0.292969 46.5625 1.32812 47.1484 2.55859C48.9453 6.34766 50.8008 11.8945 51.8555 16.5039C52.1484 17.793 52.4219 18.9648 52.4609 19.082C52.5 19.2578 52.9688 19.3359 53.8867 19.3359H55.2344L55.3125 16.1523C55.3906 12.6172 55.5078 12.1875 56.7383 11.1719L57.4414 10.6055L55.5078 8.18359C52.4805 4.41406 48.8867 0.976562 47.3633 0.390625C46.875 0.195312 46.0938 0.117188 46.0938 0.273438Z" fill="url(#paint2_linear_2_573)"/>
<path d="M28.2812 2.05078C21.25 4.41406 14.8047 8.80859 10 14.5117C8.59375 16.1914 6.64062 18.8867 6.64062 19.1797C6.64062 19.2578 9.14062 19.3359 12.1875 19.3359H17.7539L18.9453 16.9336C21.0547 12.7344 25.2734 6.83594 28.7695 3.20312C29.6289 2.28516 30.293 1.52344 30.2539 1.48438C30.2148 1.44531 29.3164 1.69922 28.2812 2.05078Z" fill="url(#paint3_linear_2_573)"/>
<path d="M52.3438 1.48438C52.3438 1.54297 53.0469 2.32422 53.8867 3.20312C55.5078 4.86328 56.9336 6.52344 58.4766 8.53516C58.9844 9.21875 59.4336 9.76562 59.4531 9.76562C59.5508 9.76562 64.7266 7.38281 64.8242 7.30469C64.8633 7.26562 64.1992 6.79688 63.3594 6.25C61.2109 4.86328 57.5586 3.125 54.8242 2.16797C52.3438 1.30859 52.3438 1.30859 52.3438 1.48438Z" fill="url(#paint4_linear_2_573)"/>
<path d="M67.9688 8.18357C60.2149 11.7578 57.8516 12.9297 57.6563 13.3008C57.461 13.6719 57.4219 16.1523 57.4805 25C57.5391 35.8594 57.5587 36.289 57.9688 37.7929C58.8282 40.8398 60.1758 43.125 62.6173 45.5859C64.4923 47.4414 66.8165 49.1601 71.4844 52.0508C73.6915 53.4375 76.0548 54.9414 76.7579 55.4101C78.4766 56.5429 78.7891 56.5234 81.0548 55.0195C82.0704 54.3359 84.4141 52.832 86.2696 51.6992C93.2032 47.3828 96.1915 44.6094 98.1251 40.7031C99.5704 37.7539 99.6094 37.4609 99.6094 24.6484C99.6094 13.8867 99.5899 13.2617 99.2579 12.9687C98.6133 12.4219 79.0821 3.5156 78.5548 3.53513C78.2618 3.53513 73.4962 5.62498 67.9688 8.18357ZM80.9766 10.7617C83.5743 11.2304 86.2696 13.0469 87.7344 15.3125C88.9258 17.1484 89.2579 18.5351 89.2579 21.6015C89.2579 24.1992 89.2579 24.2187 89.7266 24.3359C89.9805 24.3945 90.4493 24.707 90.7423 25.0195L91.3087 25.6054L91.3673 33.7109C91.4258 42.6758 91.3868 43.1445 90.3712 43.75C89.7657 44.1211 89.3165 44.1406 78.6524 44.1406C66.4844 44.1406 66.7383 44.1601 66.1133 42.9687C65.8594 42.4804 65.8204 41.1523 65.8204 34.1797C65.8204 25.039 65.8204 25.039 67.1094 24.4922L67.7735 24.2187V22.1094C67.7735 18.3203 68.6133 15.957 70.7423 13.75C73.2423 11.1523 77.0118 10.039 80.9766 10.7617Z" fill="url(#paint5_linear_2_573)"/>
<path d="M76.0742 12.9688C73.1055 13.7109 70.7812 16.1133 70.1367 19.1016C70.0195 19.668 69.9219 21.0547 69.9219 22.168V24.2188H70.9766H72.0312L72.1094 21.8164C72.207 19.0039 72.5977 17.9102 73.8867 16.6406C75.2148 15.332 76.3086 14.9414 78.6133 14.9414C80.1758 14.9414 80.7422 15.0391 81.4648 15.3516C82.7734 15.957 83.6914 16.875 84.375 18.2031C84.9414 19.3359 84.9609 19.5117 84.9609 21.8164V24.2188H86.0547H87.1484L87.0703 21.3281C87.0117 18.6523 86.9727 18.3789 86.4648 17.3438C84.9609 14.2578 82.1484 12.6562 78.3398 12.7148C77.6367 12.7148 76.6211 12.832 76.0742 12.9688Z" fill="url(#paint6_linear_2_573)"/>
<path d="M76.6602 17.2656C75.6836 17.6367 74.707 18.6914 74.4336 19.668C74.3164 20.0781 74.2188 21.2695 74.2188 22.3047V24.2188H78.5156H82.8125V21.9727C82.8125 19.3164 82.5 18.4766 81.25 17.6562C80.293 17.0117 77.8906 16.8164 76.6602 17.2656Z" fill="url(#paint7_linear_2_573)"/>
<path d="M67.9688 34.1797V41.9922H78.6133H89.2578V34.1797V26.3672H78.6133H67.9688V34.1797ZM80.0977 28.6133C81.6211 29.4141 82.3438 31.2305 81.7383 32.7539C81.4258 33.5156 81.4453 33.6719 81.9141 36.2891C82.5195 39.5508 82.5195 39.3555 82.0312 39.8438C81.6797 40.1953 81.3867 40.2344 78.6328 40.2344C75.9766 40.2344 75.5859 40.1953 75.1758 39.8633L74.707 39.4922L75.2148 36.5039C75.6641 33.8672 75.7031 33.457 75.4688 32.8711C74.707 31.0742 75.7617 28.9062 77.6953 28.3203C78.3203 28.1055 79.375 28.2422 80.0977 28.6133Z" fill="url(#paint8_linear_2_573)"/>
<path d="M78.125 30.4102C77.3242 30.6836 77.1289 31.6211 77.6758 32.5586C77.9687 33.0859 77.9687 33.2617 77.5781 35.3711C77.3437 36.6211 77.1484 37.7344 77.1484 37.8516C77.1484 38.0078 77.6367 38.0859 78.6328 38.0859C80.0781 38.0859 80.1172 38.0664 80 37.6367C79.9414 37.4023 79.7461 36.25 79.5508 35.0977C79.2383 33.125 79.2383 32.9688 79.5508 32.4414C80 31.6797 79.9609 31.3281 79.3945 30.7617C78.9258 30.2734 78.6914 30.2148 78.125 30.4102Z" fill="url(#paint9_linear_2_573)"/>
<path d="M4.35547 23.1836C2.07031 28.1836 0.78125 33.0664 0.449219 37.9297L0.332031 39.8438H6.97266H13.6133L13.75 37.3242C13.9844 32.7148 15 27.2852 16.3867 23.1836L16.9727 21.4844H11.0547H5.13672L4.35547 23.1836Z" fill="url(#paint10_linear_2_573)"/>
<path d="M18.3789 23.9062C16.9727 28.3203 16.1133 32.9688 15.8789 37.4023L15.7617 39.8438H22.0117H28.2812L28.3984 37.832C28.8086 29.7852 29.2773 24.7656 29.8047 22.1094L29.9414 21.4844H24.5508H19.1602L18.3789 23.9062Z" fill="url(#paint11_linear_2_573)"/>
<path d="M31.8555 22.793C31.2305 26.6797 30.8203 31.3867 30.5664 37.1484L30.4492 39.8438H41.3086H52.1484V37.3438C52.1484 33.6133 51.6602 27.6367 50.957 22.9883L50.7422 21.4844H41.4062H32.0703L31.8555 22.793Z" fill="url(#paint12_linear_2_573)"/>
<path d="M52.9297 21.6406C52.9297 21.7383 53.0664 22.6758 53.2227 23.75C53.75 27.3438 54.1211 31.7188 54.2383 35.7812L54.3555 39.8438H55.3125C55.8203 39.8438 56.25 39.8047 56.25 39.7656C56.25 39.707 56.0547 38.9453 55.8398 38.0469C55.4492 36.582 55.4102 35.7422 55.332 28.9453L55.2344 21.4844H54.082C53.457 21.4844 52.9297 21.5625 52.9297 21.6406Z" fill="url(#paint13_linear_2_573)"/>
<path d="M0.390625 42.9492C0.390625 44.3555 0.917969 48.2617 1.40625 50.293C1.97266 52.7148 3.16406 56.1328 4.29688 58.5352L5.25391 60.5469H11.1133C14.3555 60.5469 16.9922 60.5273 16.9922 60.4883C16.9922 60.4688 16.8164 59.9609 16.582 59.375C15.293 55.9766 13.9648 49.0625 13.7305 44.4336L13.6133 41.9922H6.99219H0.390625V42.9492Z" fill="url(#paint14_linear_2_573)"/>
<path d="M15.8203 43.2422C15.8203 47.3242 16.9141 53.4375 18.4961 58.3398L19.2187 60.5469H24.5703H29.9219L29.8047 59.9023C29.2578 56.9141 28.75 51.3086 28.3984 44.2773L28.2812 41.9922H22.0508H15.8203V43.2422Z" fill="url(#paint15_linear_2_573)"/>
<path d="M30.4688 42.2266C30.4883 46.0156 31.1719 54.5703 31.7578 58.4375L32.0703 60.5469H41.4062H50.7227L50.8594 59.707C51.6406 54.2188 52.1484 48.3008 52.1484 44.4531V41.9922H41.3086C32.7734 41.9922 30.4688 42.0508 30.4688 42.2266Z" fill="url(#paint16_linear_2_573)"/>
<path d="M54.2969 44.4531C54.2969 48.3008 53.7891 54.1992 52.9883 59.7266L52.8711 60.5469L58.2031 60.5078L63.5156 60.4492L64.0039 59.1797C64.5508 57.7148 66.0156 52.1484 66.0156 51.5039C66.0156 51.1914 65.5664 50.7422 64.3164 49.8047C61.9922 48.0664 59.6875 45.6836 58.3984 43.6914L57.3242 42.0117H55.8203L54.2969 41.9922V44.4531Z" fill="url(#paint17_linear_2_573)"/>
<path d="M67.6953 54.043C67.3633 55.4492 66.2305 59.3945 65.918 60.1953C65.7812 60.5273 66.1328 60.5469 71.6602 60.5469H77.5391L78.0273 59.5703C78.6133 58.3984 78.6133 58.3984 78.125 58.3984C77.5977 58.3984 76.7969 57.9883 75 56.7578C73.2031 55.5469 68.3203 52.5391 68.1641 52.5391C68.0859 52.5391 67.8906 53.2227 67.6953 54.043Z" fill="url(#paint18_linear_2_573)"/>
<path d="M7.05078 63.418C7.98828 64.9805 10.3906 67.9492 12.1484 69.707C16.8359 74.4336 22.0508 77.7149 28.2031 79.8047C29.2773 80.1758 30.1953 80.4297 30.2344 80.3711C30.293 80.332 29.4336 79.3555 28.3398 78.2031C24.8438 74.5508 20.9766 69.082 18.9844 65L17.8711 62.7149L12.2461 62.6953H6.60156L7.05078 63.418Z" fill="url(#paint19_linear_2_573)"/>
<path d="M20.3125 62.8906C20.3125 63.5742 22.6758 67.5586 25.1172 71.0156C28.2617 75.4492 31.25 78.7305 33.9648 80.7227C34.9414 81.4453 35.3711 81.6406 35.957 81.6406H36.7188L35.957 80.1172C34.3359 76.8945 32.2266 70.8594 31.1523 66.4062C30.8594 65.1758 30.5469 63.8281 30.4297 63.418L30.2539 62.6953H25.293C22.0117 62.6953 20.3125 62.7734 20.3125 62.8906Z" fill="url(#paint20_linear_2_573)"/>
<path d="M32.8516 64.3945C33.8868 69.1406 36.2696 76.3086 37.8907 79.6289C38.9258 81.7383 39.1212 82.0313 39.5508 82.0313H40.0391V85.5274V89.0234L39.5313 89.1406C38.1837 89.4922 36.6407 90.9961 36.0938 92.5L35.8594 93.1641H27.6172H19.3555L18.9454 93.6914C18.4766 94.2774 18.5547 95.0391 19.0821 95.4492C19.336 95.6445 21.3672 95.7031 27.6368 95.7031H35.879L36.0938 96.4649C36.4258 97.5195 37.793 98.9844 38.9649 99.5313C40.3907 100.215 42.5196 100.195 43.9063 99.4922C45.0977 98.9063 46.1524 97.7539 46.6016 96.543L46.9337 95.7031H55.1954C64.3555 95.7031 64.0626 95.7422 64.0626 94.4336C64.0626 93.1445 64.1407 93.1641 55.0587 93.1641H46.9141L46.6797 92.5C46.3282 91.4258 45.254 90.1758 44.1797 89.5899C43.6524 89.2969 43.0665 89.0625 42.8907 89.0625C42.6172 89.0625 42.5782 88.6524 42.5782 85.5469V82.0313H43.0469C43.6329 82.0313 44.1212 81.3867 45.0587 79.3555C46.0547 77.168 47.1485 74.1992 48.2618 70.5078C49.2188 67.3438 50.1954 63.5742 50.1954 62.9883C50.1954 62.7344 49.1016 62.6953 41.3282 62.6953H32.461L32.8516 64.3945Z" fill="url(#paint21_linear_2_573)"/>
<path d="M52.4805 62.832C52.4219 62.9297 52.2852 63.5156 52.1485 64.1602C51.211 68.9453 47.754 78.9648 46.3672 80.9375C45.9766 81.5039 46.0157 81.6406 46.6407 81.6406C48.3594 81.6406 56.1524 73.5156 59.6876 68.0469C60.586 66.6602 62.5001 63.0859 62.5001 62.793C62.5001 62.6367 52.5782 62.6758 52.4805 62.832Z" fill="url(#paint22_linear_2_573)"/>
<path d="M63.8672 64.8828C61.8554 69.0234 58.1054 73.9844 53.3398 78.8867C52.4609 79.7852 51.7773 80.5664 51.8359 80.6055C51.875 80.6641 53.1054 80.293 54.5312 79.8242C58.9648 78.3398 63.5937 75.8008 67.207 72.8906C70.0976 70.5664 73.9257 66.2891 75.8789 63.2227L76.2109 62.6953H70.5859H64.9414L63.8672 64.8828Z" fill="url(#paint23_linear_2_573)"/>
</g>
<defs>
<linearGradient id="paint0_linear_2_573" x1="50.2538" y1="19.3359" x2="28.8077" y2="13.4742" gradientUnits="userSpaceOnUse">
<stop stop-color="#B5AEFF"/>
<stop offset="1" stop-color="#F0DDFF"/>
</linearGradient>
<linearGradient id="paint1_linear_2_573" x1="36.7188" y1="19.3359" x2="16.7342" y2="14.2332" gradientUnits="userSpaceOnUse">
<stop stop-color="#B5AEFF"/>
<stop offset="1" stop-color="#F0DDFF"/>
</linearGradient>
<linearGradient id="paint2_linear_2_573" x1="57.4414" y1="19.3359" x2="43.1616" y2="16.8178" gradientUnits="userSpaceOnUse">
<stop stop-color="#B5AEFF"/>
<stop offset="1" stop-color="#F0DDFF"/>
</linearGradient>
<linearGradient id="paint3_linear_2_573" x1="30.2555" y1="19.3359" x2="3.72282" y2="8.89565" gradientUnits="userSpaceOnUse">
<stop stop-color="#B5AEFF"/>
<stop offset="1" stop-color="#F0DDFF"/>
</linearGradient>
<linearGradient id="paint4_linear_2_573" x1="64.8259" y1="9.76562" x2="51.292" y2="3.76343" gradientUnits="userSpaceOnUse">
<stop stop-color="#B5AEFF"/>
<stop offset="1" stop-color="#F0DDFF"/>
</linearGradient>
<linearGradient id="paint5_linear_2_573" x1="99.6094" y1="56.2096" x2="47.8483" y2="43.8854" gradientUnits="userSpaceOnUse">
<stop stop-color="#B5AEFF"/>
<stop offset="1" stop-color="#F0DDFF"/>
</linearGradient>
<linearGradient id="paint6_linear_2_573" x1="87.1484" y1="24.2188" x2="68.4976" y2="15.9105" gradientUnits="userSpaceOnUse">
<stop stop-color="#B5AEFF"/>
<stop offset="1" stop-color="#F0DDFF"/>
</linearGradient>
<linearGradient id="paint7_linear_2_573" x1="82.8125" y1="24.2188" x2="72.9116" y2="20.7013" gradientUnits="userSpaceOnUse">
<stop stop-color="#B5AEFF"/>
<stop offset="1" stop-color="#F0DDFF"/>
</linearGradient>
<linearGradient id="paint8_linear_2_573" x1="89.2578" y1="41.9922" x2="65.5334" y2="32.375" gradientUnits="userSpaceOnUse">
<stop stop-color="#B5AEFF"/>
<stop offset="1" stop-color="#F0DDFF"/>
</linearGradient>
<linearGradient id="paint9_linear_2_573" x1="80.0416" y1="38.0859" x2="76.3331" y2="37.6756" gradientUnits="userSpaceOnUse">
<stop stop-color="#B5AEFF"/>
<stop offset="1" stop-color="#F0DDFF"/>
</linearGradient>
<linearGradient id="paint10_linear_2_573" x1="16.9727" y1="39.8438" x2="-3.15519" y2="34.4159" gradientUnits="userSpaceOnUse">
<stop stop-color="#B5AEFF"/>
<stop offset="1" stop-color="#F0DDFF"/>
</linearGradient>
<linearGradient id="paint11_linear_2_573" x1="29.9414" y1="39.8438" x2="12.4657" y2="35.8281" gradientUnits="userSpaceOnUse">
<stop stop-color="#B5AEFF"/>
<stop offset="1" stop-color="#F0DDFF"/>
</linearGradient>
<linearGradient id="paint12_linear_2_573" x1="52.1484" y1="39.8438" x2="27.0916" y2="31.0327" gradientUnits="userSpaceOnUse">
<stop stop-color="#B5AEFF"/>
<stop offset="1" stop-color="#F0DDFF"/>
</linearGradient>
<linearGradient id="paint13_linear_2_573" x1="56.25" y1="39.8438" x2="51.9543" y2="39.6126" gradientUnits="userSpaceOnUse">
<stop stop-color="#B5AEFF"/>
<stop offset="1" stop-color="#F0DDFF"/>
</linearGradient>
<linearGradient id="paint14_linear_2_573" x1="16.9922" y1="60.5469" x2="-3.12323" y2="55.1921" gradientUnits="userSpaceOnUse">
<stop stop-color="#B5AEFF"/>
<stop offset="1" stop-color="#F0DDFF"/>
</linearGradient>
<linearGradient id="paint15_linear_2_573" x1="29.9219" y1="60.5469" x2="12.5148" y2="56.6109" gradientUnits="userSpaceOnUse">
<stop stop-color="#B5AEFF"/>
<stop offset="1" stop-color="#F0DDFF"/>
</linearGradient>
<linearGradient id="paint16_linear_2_573" x1="52.1484" y1="60.5469" x2="27.0515" y2="51.8224" gradientUnits="userSpaceOnUse">
<stop stop-color="#B5AEFF"/>
<stop offset="1" stop-color="#F0DDFF"/>
</linearGradient>
<linearGradient id="paint17_linear_2_573" x1="66.0156" y1="60.5469" x2="49.6858" y2="57.105" gradientUnits="userSpaceOnUse">
<stop stop-color="#B5AEFF"/>
<stop offset="1" stop-color="#F0DDFF"/>
</linearGradient>
<linearGradient id="paint18_linear_2_573" x1="78.4798" y1="60.5469" x2="65.0811" y2="54.2826" gradientUnits="userSpaceOnUse">
<stop stop-color="#B5AEFF"/>
<stop offset="1" stop-color="#F0DDFF"/>
</linearGradient>
<linearGradient id="paint19_linear_2_573" x1="30.2372" y1="80.3795" x2="3.75669" y2="69.8496" gradientUnits="userSpaceOnUse">
<stop stop-color="#B5AEFF"/>
<stop offset="1" stop-color="#F0DDFF"/>
</linearGradient>
<linearGradient id="paint20_linear_2_573" x1="36.7188" y1="81.6406" x2="16.7564" y2="76.4974" gradientUnits="userSpaceOnUse">
<stop stop-color="#B5AEFF"/>
<stop offset="1" stop-color="#F0DDFF"/>
</linearGradient>
<linearGradient id="paint21_linear_2_573" x1="64.0636" y1="100.032" x2="11.9493" y2="81.1668" gradientUnits="userSpaceOnUse">
<stop stop-color="#B5AEFF"/>
<stop offset="1" stop-color="#F0DDFF"/>
</linearGradient>
<linearGradient id="paint22_linear_2_573" x1="62.5001" y1="81.6406" x2="42.559" y2="76.5097" gradientUnits="userSpaceOnUse">
<stop stop-color="#B5AEFF"/>
<stop offset="1" stop-color="#F0DDFF"/>
</linearGradient>
<linearGradient id="paint23_linear_2_573" x1="76.2109" y1="80.6116" x2="49.0334" y2="69.6092" gradientUnits="userSpaceOnUse">
<stop stop-color="#B5AEFF"/>
<stop offset="1" stop-color="#F0DDFF"/>
</linearGradient>
<clipPath id="clip0_2_573">
<rect width="100" height="100" fill="white"/>
</clipPath>
</defs>
</svg>
