<svg width="102" height="18" viewBox="0 0 102 18" fill="none" xmlns="http://www.w3.org/2000/svg">
<path d="M8.64363 1.72117C8.6765 1.65477 8.72728 1.59887 8.79022 1.55979C8.85317 1.52071 8.92579 1.5 8.99988 1.5C9.07398 1.5 9.1466 1.52071 9.20955 1.55979C9.27249 1.59887 9.32327 1.65477 9.35614 1.72117L11.0886 5.23042C11.2028 5.4614 11.3712 5.66123 11.5796 5.81276C11.788 5.96429 12.03 6.063 12.2849 6.10042L16.1594 6.66742C16.2328 6.67806 16.3018 6.70902 16.3585 6.75682C16.4152 6.80462 16.4575 6.86733 16.4804 6.93788C16.5033 7.00842 16.5061 7.08397 16.4883 7.156C16.4706 7.22802 16.433 7.29363 16.3799 7.34542L13.5779 10.0739C13.3931 10.254 13.2548 10.4763 13.175 10.7216C13.0952 10.967 13.0762 11.2281 13.1196 11.4824L13.7811 15.3374C13.7941 15.4108 13.7862 15.4863 13.7583 15.5554C13.7303 15.6245 13.6836 15.6844 13.6233 15.7282C13.563 15.772 13.4916 15.7979 13.4173 15.8031C13.3429 15.8083 13.2687 15.7924 13.2029 15.7574L9.73938 13.9364C9.51117 13.8166 9.25727 13.754 8.99951 13.754C8.74175 13.754 8.48785 13.8166 8.25963 13.9364L4.79688 15.7574C4.73113 15.7922 4.65693 15.8079 4.58272 15.8026C4.50851 15.7973 4.43727 15.7713 4.37711 15.7276C4.31694 15.6838 4.27026 15.6241 4.24238 15.5551C4.21449 15.4861 4.20653 15.4107 4.21938 15.3374L4.88013 11.4832C4.92378 11.2287 4.90487 10.9675 4.82504 10.722C4.7452 10.4764 4.60684 10.254 4.42188 10.0739L1.61988 7.34617C1.56633 7.29444 1.52838 7.22872 1.51036 7.15648C1.49233 7.08423 1.49496 7.00838 1.51794 6.93756C1.54093 6.86674 1.58334 6.8038 1.64034 6.75591C1.69735 6.70801 1.76666 6.67709 1.84038 6.66667L5.71413 6.10042C5.96933 6.06329 6.21168 5.96471 6.42032 5.81316C6.62897 5.66161 6.79766 5.46162 6.91188 5.23042L8.64363 1.72117Z" fill="#FDC700" stroke="#FDC700" stroke-width="1.35417" stroke-linecap="round" stroke-linejoin="round"/>
<path d="M29.6436 1.72117C29.6765 1.65477 29.7273 1.59887 29.7902 1.55979C29.8532 1.52071 29.9258 1.5 29.9999 1.5C30.074 1.5 30.1466 1.52071 30.2095 1.55979C30.2725 1.59887 30.3233 1.65477 30.3561 1.72117L32.0886 5.23042C32.2028 5.4614 32.3712 5.66123 32.5796 5.81276C32.788 5.96429 33.03 6.063 33.2849 6.10042L37.1594 6.66742C37.2328 6.67806 37.3018 6.70902 37.3585 6.75682C37.4152 6.80462 37.4575 6.86733 37.4804 6.93788C37.5033 7.00842 37.5061 7.08397 37.4883 7.156C37.4706 7.22802 37.433 7.29363 37.3799 7.34542L34.5779 10.0739C34.3931 10.254 34.2548 10.4763 34.175 10.7216C34.0952 10.967 34.0762 11.2281 34.1196 11.4824L34.7811 15.3374C34.7941 15.4108 34.7862 15.4863 34.7583 15.5554C34.7303 15.6245 34.6836 15.6844 34.6233 15.7282C34.563 15.772 34.4916 15.7979 34.4173 15.8031C34.3429 15.8083 34.2687 15.7924 34.2029 15.7574L30.7394 13.9364C30.5112 13.8166 30.2573 13.754 29.9995 13.754C29.7418 13.754 29.4878 13.8166 29.2596 13.9364L25.7969 15.7574C25.7311 15.7922 25.6569 15.8079 25.5827 15.8026C25.5085 15.7973 25.4373 15.7713 25.3771 15.7276C25.3169 15.6838 25.2703 15.6241 25.2424 15.5551C25.2145 15.4861 25.2065 15.4107 25.2194 15.3374L25.8801 11.4832C25.9238 11.2287 25.9049 10.9675 25.825 10.722C25.7452 10.4764 25.6068 10.254 25.4219 10.0739L22.6199 7.34617C22.5663 7.29444 22.5284 7.22872 22.5104 7.15648C22.4923 7.08423 22.495 7.00838 22.5179 6.93756C22.5409 6.86674 22.5833 6.8038 22.6403 6.75591C22.6973 6.70801 22.7667 6.67709 22.8404 6.66667L26.7141 6.10042C26.9693 6.06329 27.2117 5.96471 27.4203 5.81316C27.629 5.66161 27.7977 5.46162 27.9119 5.23042L29.6436 1.72117Z" fill="#FDC700" stroke="#FDC700" stroke-width="1.35417" stroke-linecap="round" stroke-linejoin="round"/>
<path d="M50.6436 1.72117C50.6765 1.65477 50.7273 1.59887 50.7902 1.55979C50.8532 1.52071 50.9258 1.5 50.9999 1.5C51.074 1.5 51.1466 1.52071 51.2095 1.55979C51.2725 1.59887 51.3233 1.65477 51.3561 1.72117L53.0886 5.23042C53.2028 5.4614 53.3712 5.66123 53.5796 5.81276C53.788 5.96429 54.03 6.063 54.2849 6.10042L58.1594 6.66742C58.2328 6.67806 58.3018 6.70902 58.3585 6.75682C58.4152 6.80462 58.4575 6.86733 58.4804 6.93788C58.5033 7.00842 58.5061 7.08397 58.4883 7.156C58.4706 7.22802 58.433 7.29363 58.3799 7.34542L55.5779 10.0739C55.3931 10.254 55.2548 10.4763 55.175 10.7216C55.0952 10.967 55.0762 11.2281 55.1196 11.4824L55.7811 15.3374C55.7941 15.4108 55.7862 15.4863 55.7583 15.5554C55.7303 15.6245 55.6836 15.6844 55.6233 15.7282C55.563 15.772 55.4916 15.7979 55.4173 15.8031C55.3429 15.8083 55.2687 15.7924 55.2029 15.7574L51.7394 13.9364C51.5112 13.8166 51.2573 13.754 50.9995 13.754C50.7418 13.754 50.4878 13.8166 50.2596 13.9364L46.7969 15.7574C46.7311 15.7922 46.6569 15.8079 46.5827 15.8026C46.5085 15.7973 46.4373 15.7713 46.3771 15.7276C46.3169 15.6838 46.2703 15.6241 46.2424 15.5551C46.2145 15.4861 46.2065 15.4107 46.2194 15.3374L46.8801 11.4832C46.9238 11.2287 46.9049 10.9675 46.825 10.722C46.7452 10.4764 46.6068 10.254 46.4219 10.0739L43.6199 7.34617C43.5663 7.29444 43.5284 7.22872 43.5104 7.15648C43.4923 7.08423 43.495 7.00838 43.5179 6.93756C43.5409 6.86674 43.5833 6.8038 43.6403 6.75591C43.6973 6.70801 43.7667 6.67709 43.8404 6.66667L47.7141 6.10042C47.9693 6.06329 48.2117 5.96471 48.4203 5.81316C48.629 5.66161 48.7977 5.46162 48.9119 5.23042L50.6436 1.72117Z" fill="#FDC700" stroke="#FDC700" stroke-width="1.35417" stroke-linecap="round" stroke-linejoin="round"/>
<path d="M71.6436 1.72117C71.6765 1.65477 71.7273 1.59887 71.7902 1.55979C71.8532 1.52071 71.9258 1.5 71.9999 1.5C72.074 1.5 72.1466 1.52071 72.2095 1.55979C72.2725 1.59887 72.3233 1.65477 72.3561 1.72117L74.0886 5.23042C74.2028 5.4614 74.3712 5.66123 74.5796 5.81276C74.788 5.96429 75.03 6.063 75.2849 6.10042L79.1594 6.66742C79.2328 6.67806 79.3018 6.70902 79.3585 6.75682C79.4152 6.80462 79.4575 6.86733 79.4804 6.93788C79.5033 7.00842 79.5061 7.08397 79.4883 7.156C79.4706 7.22802 79.433 7.29363 79.3799 7.34542L76.5779 10.0739C76.3931 10.254 76.2548 10.4763 76.175 10.7216C76.0952 10.967 76.0762 11.2281 76.1196 11.4824L76.7811 15.3374C76.7941 15.4108 76.7862 15.4863 76.7583 15.5554C76.7303 15.6245 76.6836 15.6844 76.6233 15.7282C76.563 15.772 76.4916 15.7979 76.4173 15.8031C76.3429 15.8083 76.2687 15.7924 76.2029 15.7574L72.7394 13.9364C72.5112 13.8166 72.2573 13.754 71.9995 13.754C71.7418 13.754 71.4878 13.8166 71.2596 13.9364L67.7969 15.7574C67.7311 15.7922 67.6569 15.8079 67.5827 15.8026C67.5085 15.7973 67.4373 15.7713 67.3771 15.7276C67.3169 15.6838 67.2703 15.6241 67.2424 15.5551C67.2145 15.4861 67.2065 15.4107 67.2194 15.3374L67.8801 11.4832C67.9238 11.2287 67.9049 10.9675 67.825 10.722C67.7452 10.4764 67.6068 10.254 67.4219 10.0739L64.6199 7.34617C64.5663 7.29444 64.5284 7.22872 64.5104 7.15648C64.4923 7.08423 64.495 7.00838 64.5179 6.93756C64.5409 6.86674 64.5833 6.8038 64.6403 6.75591C64.6973 6.70801 64.7667 6.67709 64.8404 6.66667L68.7141 6.10042C68.9693 6.06329 69.2117 5.96471 69.4203 5.81316C69.629 5.66161 69.7977 5.46162 69.9119 5.23042L71.6436 1.72117Z" fill="#FDC700" stroke="#FDC700" stroke-width="1.35417" stroke-linecap="round" stroke-linejoin="round"/>
<path d="M92.6436 1.72117C92.6765 1.65477 92.7273 1.59887 92.7902 1.55979C92.8532 1.52071 92.9258 1.5 92.9999 1.5C93.074 1.5 93.1466 1.52071 93.2095 1.55979C93.2725 1.59887 93.3233 1.65477 93.3561 1.72117L95.0886 5.23042C95.2028 5.4614 95.3712 5.66123 95.5796 5.81276C95.788 5.96429 96.03 6.063 96.2849 6.10042L100.159 6.66742C100.233 6.67806 100.302 6.70902 100.359 6.75682C100.415 6.80462 100.457 6.86733 100.48 6.93788C100.503 7.00842 100.506 7.08397 100.488 7.156C100.471 7.22802 100.433 7.29363 100.38 7.34542L97.5779 10.0739C97.3931 10.254 97.2548 10.4763 97.175 10.7216C97.0952 10.967 97.0762 11.2281 97.1196 11.4824L97.7811 15.3374C97.7941 15.4108 97.7862 15.4863 97.7583 15.5554C97.7303 15.6245 97.6836 15.6844 97.6233 15.7282C97.563 15.772 97.4916 15.7979 97.4173 15.8031C97.3429 15.8083 97.2687 15.7924 97.2029 15.7574L93.7394 13.9364C93.5112 13.8166 93.2573 13.754 92.9995 13.754C92.7418 13.754 92.4878 13.8166 92.2596 13.9364L88.7969 15.7574C88.7311 15.7922 88.6569 15.8079 88.5827 15.8026C88.5085 15.7973 88.4373 15.7713 88.3771 15.7276C88.3169 15.6838 88.2703 15.6241 88.2424 15.5551C88.2145 15.4861 88.2065 15.4107 88.2194 15.3374L88.8801 11.4832C88.9238 11.2287 88.9049 10.9675 88.825 10.722C88.7452 10.4764 88.6068 10.254 88.4219 10.0739L85.6199 7.34617C85.5663 7.29444 85.5284 7.22872 85.5104 7.15648C85.4923 7.08423 85.495 7.00838 85.5179 6.93756C85.5409 6.86674 85.5833 6.8038 85.6403 6.75591C85.6973 6.70801 85.7667 6.67709 85.8404 6.66667L89.7141 6.10042C89.9693 6.06329 90.2117 5.96471 90.4203 5.81316C90.629 5.66161 90.7977 5.46162 90.9119 5.23042L92.6436 1.72117Z" fill="#FDC700" stroke="#FDC700" stroke-width="1.35417" stroke-linecap="round" stroke-linejoin="round"/>
</svg>
