<svg width="100" height="100" viewBox="0 0 100 100" fill="none" xmlns="http://www.w3.org/2000/svg">
<path d="M31.9336 8.32031C31.7188 8.35938 31.0547 8.49609 30.4688 8.61328C27.168 9.25781 23.6328 12.0508 22.1094 15.2539C20.9766 17.5977 20.7031 19.1992 20.7031 23.5352V27.1484H22.5195C25.0781 27.1484 26.2109 27.5195 27.4609 28.7891C29.043 30.3516 29.1211 30.7617 29.082 37.8906L29.0625 43.8477L31.9336 46.0156C35.4297 48.6523 35.7422 49.082 35.0391 50.4102C34.6875 51.0938 33.6719 51.6016 32.9883 51.4258C32.7344 51.3672 31.2109 50.3516 29.6289 49.1602L26.7383 47.0117L26.0156 47.3633C25.4688 47.6367 24.707 47.7539 23.0078 47.8125L20.7031 47.8906V62.5195V77.1484H50H79.2969V58.3008V39.4531H77.2461C75.6836 39.4531 74.9609 39.3555 74.1992 39.082L73.2031 38.6914L70.3516 40.8398C68.7891 42.0117 67.3047 43.0273 67.0508 43.0859C65.918 43.3789 64.5117 42.0703 64.7266 40.918C64.8828 40.1367 65.3906 39.668 68.3984 37.4219L70.9961 35.4883L70.9375 29.5508C70.8594 22.7344 70.957 22.1484 72.2461 20.6641C73.3789 19.3945 74.5898 18.9258 77.0898 18.7891L79.1016 18.6914L78.9648 18.1836C78.3789 15.6641 77.3828 13.8867 75.4883 12.0117C73.8086 10.332 72.5 9.53125 70.2148 8.76953L68.8477 8.30078L50.5859 8.28125C40.5469 8.26172 32.1484 8.28125 31.9336 8.32031ZM57.2656 13.0664C61.2305 15 61.2695 20.2148 57.3438 22.3242C56.582 22.7344 56.2891 22.7539 50.8789 22.8125C47.7734 22.8516 44.7656 22.832 44.2188 22.7539C41.9922 22.4805 40.0586 20.5664 39.7461 18.3594C39.3945 15.7422 41.3281 13.1641 44.043 12.6758C44.4727 12.5977 47.4219 12.5586 50.5859 12.5781C56.1719 12.5977 56.3672 12.6172 57.2656 13.0664ZM53.3203 33.9062C55.293 34.4922 57.0312 35.5469 58.6133 37.1094C60.9766 39.4531 61.9727 41.582 62.3242 45.0195C62.5781 47.5195 62.4414 48.5352 61.7188 49.2578C60.7031 50.2539 59.1016 49.8828 58.5742 48.4961C58.4766 48.2422 58.3984 47.2461 58.3984 46.2891C58.3984 42.4805 56.7383 39.7266 53.5352 38.2031C52.3242 37.6367 52.1094 37.5977 50 37.5977C47.8906 37.5977 47.6758 37.6367 46.4648 38.2031C43.2617 39.7266 41.6016 42.4805 41.6016 46.2891C41.6016 47.2461 41.5234 48.2422 41.4258 48.4961C40.8984 49.8828 39.2969 50.2539 38.2812 49.2578C37.5586 48.5352 37.4219 47.5195 37.6758 45C38.0078 41.7188 38.9648 39.6094 41.1133 37.3438C42.9102 35.4297 45.4297 34.043 47.8711 33.6133C49.2578 33.3594 51.9727 33.4961 53.3203 33.9062ZM52.6758 40.3516C53.9258 40.957 55.3125 42.4609 55.7617 43.7109C55.9961 44.3555 56.1328 45.4883 56.1914 47.5781L56.2891 50.5078L59.082 51.0547C60.6055 51.3477 62.2461 51.7773 62.7148 51.9727C64.4141 52.7344 65.6836 54.4727 65.918 56.3672C66.0742 57.6562 64.1211 68.0664 63.4766 69.3359C62.7734 70.7422 61.3086 71.9922 59.8242 72.4609C58.6719 72.8125 58.0078 72.8516 52.6562 72.8516C46.3477 72.8516 45.3711 72.7344 44.043 71.8164C42.3438 70.625 36.0547 65.4883 35.4688 64.8047C34.6289 63.8281 34.1797 62.5586 34.1797 61.1328C34.1797 59.5508 34.6484 58.3594 35.7617 57.1484C37.3828 55.3711 39.5312 54.7656 42.0508 55.3516C42.793 55.5273 43.457 55.6641 43.5547 55.6641C43.6328 55.6641 43.75 53.1836 43.7891 50.1367L43.8477 44.6289L44.3945 43.457C45.9375 40.1367 49.5117 38.7891 52.6758 40.3516Z" fill="url(#paint0_linear_2_562)"/>
<path d="M43.9844 16.8359C43.8477 16.9727 43.75 17.3438 43.75 17.6758C43.75 18.0078 43.8477 18.3789 43.9844 18.5156C44.3164 18.8477 55.6836 18.8477 56.0156 18.5156C56.3281 18.2031 56.3281 17.1484 56.0156 16.8359C55.6836 16.5039 44.3164 16.5039 43.9844 16.8359Z" fill="url(#paint1_linear_2_562)"/>
<path d="M48.418 44.3164L47.8516 44.8828V51.6602C47.8516 59.2188 47.8125 59.5117 46.6016 60.0781C45.957 60.3906 45.8398 60.3906 43.0664 59.6875C40.6055 59.082 40.0977 59.0039 39.5312 59.1797C38.1445 59.6484 37.6172 61.3477 38.5352 62.3828C38.7695 62.6562 40.6445 64.1992 42.6758 65.8203L46.3867 68.75H52.5C59.1797 68.75 59.5117 68.7109 59.9219 67.6367C60.2148 66.9141 61.9141 57.8516 61.9141 57.0508C61.9141 55.6641 61.7773 55.5859 57.1289 54.6875C53.3789 53.9648 52.9883 53.8281 52.5195 53.0469C52.1875 52.5195 52.1484 52.0117 52.1484 48.8672C52.1484 44.2383 51.9336 43.75 49.9023 43.75C49.1602 43.75 48.8867 43.8477 48.418 44.3164Z" fill="url(#paint2_linear_2_562)"/>
<path d="M75.2344 23.0859C75.0586 23.2617 75 24.8633 75 29.1211C75 34.1406 75.0391 34.9805 75.3125 35.2344C75.5664 35.5078 76.3867 35.5469 81.2305 35.5469C86.4258 35.5469 86.875 35.5273 87.168 35.1953C87.4609 34.8828 87.5 34.1602 87.5 29.082C87.5 24.8633 87.4414 23.2617 87.2656 23.0859C86.9336 22.7539 75.5664 22.7539 75.2344 23.0859Z" fill="url(#paint3_linear_2_562)"/>
<path d="M12.7344 31.4844C12.4023 31.8164 12.4023 43.1836 12.7344 43.5156C13.0664 43.8477 24.4336 43.8477 24.7656 43.5156C25.0977 43.1836 25.0977 31.8164 24.7656 31.4844C24.4336 31.1523 13.0664 31.1523 12.7344 31.4844Z" fill="url(#paint4_linear_2_562)"/>
<path d="M21.0156 81.7773C21.6211 84.3359 22.6172 86.0938 24.5117 87.9883C26.2305 89.707 27.5586 90.5273 29.8828 91.25L31.3477 91.6992H49.9023C70.4492 91.6992 69.3555 91.7578 72.2461 90.3906C73.5742 89.7461 74.2188 89.2969 75.4883 88.0078C77.3828 86.0938 78.3789 84.3359 78.9844 81.7773L79.1016 81.25H50H20.8984L21.0156 81.7773Z" fill="url(#paint5_linear_2_562)"/>
<defs>
<linearGradient id="paint0_linear_2_562" x1="79.2969" y1="77.1484" x2="7.84761" y2="59.064" gradientUnits="userSpaceOnUse">
<stop stop-color="#B5AEFF"/>
<stop offset="1" stop-color="#F0DDFF"/>
</linearGradient>
<linearGradient id="paint1_linear_2_562" x1="56.25" y1="18.7646" x2="52.1087" y2="11.6923" gradientUnits="userSpaceOnUse">
<stop stop-color="#B5AEFF"/>
<stop offset="1" stop-color="#F0DDFF"/>
</linearGradient>
<linearGradient id="paint2_linear_2_562" x1="61.9141" y1="68.75" x2="33.2886" y2="60.6295" gradientUnits="userSpaceOnUse">
<stop stop-color="#B5AEFF"/>
<stop offset="1" stop-color="#F0DDFF"/>
</linearGradient>
<linearGradient id="paint3_linear_2_562" x1="87.5" y1="35.5469" x2="72.5601" y2="31.1754" gradientUnits="userSpaceOnUse">
<stop stop-color="#B5AEFF"/>
<stop offset="1" stop-color="#F0DDFF"/>
</linearGradient>
<linearGradient id="paint4_linear_2_562" x1="25.0146" y1="43.7646" x2="10.0797" y2="39.3212" gradientUnits="userSpaceOnUse">
<stop stop-color="#B5AEFF"/>
<stop offset="1" stop-color="#F0DDFF"/>
</linearGradient>
<linearGradient id="paint5_linear_2_562" x1="79.1016" y1="91.6996" x2="58.9424" y2="58.2927" gradientUnits="userSpaceOnUse">
<stop stop-color="#B5AEFF"/>
<stop offset="1" stop-color="#F0DDFF"/>
</linearGradient>
</defs>
</svg>
